<?xml version="1.0" encoding="UTF-8"?>
<svg id="Layer_1" data-name="Layer 1" xmlns="http://www.w3.org/2000/svg" xmlns:xlink="http://www.w3.org/1999/xlink" viewBox="0 0 780 400">
  <defs>
    <style>
      .cls-1 {
        fill: url(#linear-gradient-8);
      }

      .cls-2 {
        fill: url(#linear-gradient-7);
      }

      .cls-3 {
        fill: url(#linear-gradient-5);
      }

      .cls-4 {
        fill: url(#linear-gradient-6);
      }

      .cls-5 {
        fill: url(#linear-gradient-9);
      }

      .cls-6 {
        fill: url(#linear-gradient-4);
      }

      .cls-7 {
        fill: url(#linear-gradient-3);
      }

      .cls-8 {
        fill: url(#linear-gradient-2);
      }

      .cls-9 {
        fill: #bd1b23;
      }

      .cls-10 {
        fill: url(#linear-gradient);
      }

      .cls-11 {
        fill: url(#linear-gradient-10);
      }

      .cls-12 {
        fill: url(#linear-gradient-11);
      }

      .cls-13 {
        fill: url(#linear-gradient-12);
      }

      .cls-14 {
        fill: url(#linear-gradient-13);
      }

      .cls-15 {
        fill: url(#linear-gradient-19);
      }

      .cls-16 {
        fill: url(#linear-gradient-14);
      }

      .cls-17 {
        fill: url(#linear-gradient-21);
      }

      .cls-18 {
        fill: url(#linear-gradient-20);
      }

      .cls-19 {
        fill: url(#linear-gradient-22);
      }

      .cls-20 {
        fill: url(#linear-gradient-23);
      }

      .cls-21 {
        fill: url(#linear-gradient-28);
      }

      .cls-22 {
        fill: url(#linear-gradient-25);
      }

      .cls-23 {
        fill: url(#linear-gradient-15);
      }

      .cls-24 {
        fill: url(#linear-gradient-16);
      }

      .cls-25 {
        fill: url(#linear-gradient-17);
      }

      .cls-26 {
        fill: url(#linear-gradient-18);
      }

      .cls-27 {
        fill: url(#linear-gradient-27);
      }

      .cls-28 {
        fill: url(#linear-gradient-24);
      }

      .cls-29 {
        fill: url(#linear-gradient-26);
      }
    </style>
    <linearGradient id="linear-gradient" x1="-4791.5" y1="-4038.09" x2="-4789.34" y2="-4038.09" gradientTransform="translate(791946.4645 700755.9172) rotate(1.3804) scale(168.7147)" gradientUnits="userSpaceOnUse">
      <stop offset="0" stop-color="#a06218"/>
      <stop offset="0" stop-color="#a06218"/>
      <stop offset=".51" stop-color="#f1e993"/>
      <stop offset=".66" stop-color="#ecda81"/>
      <stop offset=".97" stop-color="#e0b655"/>
      <stop offset="1" stop-color="#dfb251"/>
    </linearGradient>
    <linearGradient id="linear-gradient-2" y1="-4038.08" y2="-4038.08" xlink:href="#linear-gradient"/>
    <linearGradient id="linear-gradient-3" x1="-5017.44" y1="-3936.38" x2="-5015.28" y2="-3936.38" gradientTransform="translate(513896.451 403009.409) scale(102.3663)" xlink:href="#linear-gradient"/>
    <linearGradient id="linear-gradient-4" y1="-4038.93" y2="-4038.93" xlink:href="#linear-gradient"/>
    <linearGradient id="linear-gradient-5" x1="-5017.44" y1="-3934.97" x2="-5015.28" y2="-3934.97" gradientTransform="translate(513896.451 403009.409) scale(102.3663)" xlink:href="#linear-gradient"/>
    <linearGradient id="linear-gradient-6" y1="-4038.08" x2="-4789.34" y2="-4038.08" xlink:href="#linear-gradient"/>
    <linearGradient id="linear-gradient-7" x1="-4735.89" y1="-3779.29" x2="-4733.73" y2="-3779.29" gradientTransform="translate(267291.4099 701314.6912) rotate(30.5608) scale(123.8237)" xlink:href="#linear-gradient"/>
    <linearGradient id="linear-gradient-8" x1="-4734.27" y1="-3781.75" x2="-4732.12" y2="-3781.75" gradientTransform="translate(268492.4127 705515.144) rotate(30.5608) scale(124.5356)" xlink:href="#linear-gradient"/>
    <linearGradient id="linear-gradient-9" x1="-4734.36" y1="-3781.69" x2="-4732.21" y2="-3781.69" gradientTransform="translate(268428.3091 705275.9358) rotate(30.5608) scale(124.4959)" xlink:href="#linear-gradient"/>
    <linearGradient id="linear-gradient-10" x1="-4737.2" y1="-3777.34" x2="-4735.04" y2="-3777.34" gradientTransform="translate(266326.2924 697926.7945) rotate(30.5608) scale(123.2502)" xlink:href="#linear-gradient"/>
    <linearGradient id="linear-gradient-11" x1="-4736.68" y1="-3778.19" x2="-4734.52" y2="-3778.19" gradientTransform="translate(266715.4325 699270.3539) rotate(30.5608) scale(123.4789)" xlink:href="#linear-gradient"/>
    <linearGradient id="linear-gradient-12" x1="-4735.86" y1="-3779.5" x2="-4733.7" y2="-3779.5" gradientTransform="translate(267321.8317 701373.8835) rotate(30.5608) scale(123.8364)" xlink:href="#linear-gradient"/>
    <linearGradient id="linear-gradient-13" x1="-4734.29" y1="-3781.99" x2="-4732.13" y2="-3781.99" gradientTransform="translate(268498.0376 705468.4116) rotate(30.5608) scale(124.5314)" xlink:href="#linear-gradient"/>
    <linearGradient id="linear-gradient-14" x1="-4734.53" y1="-3781.15" x2="-4732.38" y2="-3781.15" gradientTransform="translate(268286.1123 704851.5167) rotate(30.5608) scale(124.4199)" xlink:href="#linear-gradient"/>
    <linearGradient id="linear-gradient-15" x1="-4733.17" y1="-3783.35" x2="-4731.01" y2="-3783.35" gradientTransform="translate(269318.3369 708441.8528) rotate(30.5608) scale(125.0296)" xlink:href="#linear-gradient"/>
    <linearGradient id="linear-gradient-16" x1="-4735.84" y1="-3779.22" x2="-4733.68" y2="-3779.22" gradientTransform="translate(267317.8657 701448.205) rotate(30.5608) scale(123.8441)" xlink:href="#linear-gradient"/>
    <linearGradient id="linear-gradient-17" x1="-4737.11" y1="-3777.28" x2="-4734.95" y2="-3777.28" gradientTransform="translate(266382.3909 698174.2546) rotate(30.5608) scale(123.2893)" xlink:href="#linear-gradient"/>
    <linearGradient id="linear-gradient-18" x1="-4734.07" y1="-3782.05" x2="-4731.91" y2="-3782.05" gradientTransform="translate(268646.5909 706063.3157) rotate(30.5608) scale(124.628)" xlink:href="#linear-gradient"/>
    <linearGradient id="linear-gradient-19" x1="-4738.38" y1="-3775.4" x2="-4736.22" y2="-3775.4" gradientTransform="translate(265460.0647 694928.8726) rotate(30.5608) scale(122.7402)" xlink:href="#linear-gradient"/>
    <linearGradient id="linear-gradient-20" x1="-4734" y1="-3782.24" x2="-4731.85" y2="-3782.24" gradientTransform="translate(268700.7255 706229.3228) rotate(30.5608) scale(124.6576)" xlink:href="#linear-gradient"/>
    <linearGradient id="linear-gradient-21" x1="-4735.82" y1="-3779.44" x2="-4733.67" y2="-3779.44" gradientTransform="translate(267341.9356 701475.5622) rotate(30.5608) scale(123.8518)" xlink:href="#linear-gradient"/>
    <linearGradient id="linear-gradient-22" x1="-4736.54" y1="-3777.94" x2="-4734.38" y2="-3777.94" gradientTransform="translate(266793.8037 699673.34) rotate(30.5608) scale(123.54)" xlink:href="#linear-gradient"/>
    <linearGradient id="linear-gradient-23" x1="-4733.15" y1="-3783.28" x2="-4731" y2="-3783.28" gradientTransform="translate(269323.5438 708486.8158) rotate(30.5608) scale(125.0358)" xlink:href="#linear-gradient"/>
    <linearGradient id="linear-gradient-24" x1="-4737.75" y1="-3776.17" x2="-4735.59" y2="-3776.17" gradientTransform="translate(265910.8288 696560.3081) rotate(30.5608) scale(123.0138)" xlink:href="#linear-gradient"/>
    <linearGradient id="linear-gradient-25" x1="-4734.37" y1="-3781.5" x2="-4732.21" y2="-3781.5" gradientTransform="translate(268417.5591 705293.8733) rotate(30.5608) scale(124.4959)" xlink:href="#linear-gradient"/>
    <linearGradient id="linear-gradient-26" x1="-4734.2" y1="-3781.78" x2="-4732.04" y2="-3781.78" gradientTransform="translate(268545.0935 705725.7091) rotate(30.5608) scale(124.5699)" xlink:href="#linear-gradient"/>
    <linearGradient id="linear-gradient-27" x1="-4734.51" y1="-3781.34" x2="-4732.35" y2="-3781.34" gradientTransform="translate(268313.4373 704902.1103) rotate(30.5608) scale(124.431)" xlink:href="#linear-gradient"/>
    <linearGradient id="linear-gradient-28" x1="-4737.18" y1="-3777.26" x2="-4735.02" y2="-3777.26" gradientTransform="translate(266337.0524 697992.3171) rotate(30.5608) scale(123.2597)" xlink:href="#linear-gradient"/>
  </defs>
  <path class="cls-9" d="M316.79,137.49c.09-.15.06-.34.09-.52l.11-.93-14.49.19.23,1.38v.22l14.05-.33Z"/>
  <path class="cls-9" d="M499.22,157.68l-78.79.56-.44,6.93,9.33,6.53c.45.27,6.76,14.21,8.28,19.9,8.59,1.21,17.3,2.07,25.59,2.07,14.14,0,27.05-2.5,36.03-10.04v-25.95Z"/>
  <path class="cls-9" d="M313.54,152.71l-.07-2.64c-.28-1-1.24-3.34-2.62-3.34-.93,0-1.39.83-1.6,1.5,1.22,1.48,2.68,3.04,4.29,4.48Z"/>
  <path class="cls-9" d="M306.84,160.46l-.26-11.37v-.13s.01-.02.01-.03c-1.61-2.02-2.74-3.75-3.31-4.66l-.54,15.84,1.85-.52,2.25.87Z"/>
  <path class="cls-9" d="M297.78,165.4l3.64,2.04c25.31-6.89,52.04-9.99,60.35-10.83l-2.47-2.48c-9.74,1.51-20.82,3.58-30.13,5.41-.41.12-3.59.73-3.59.73,0,0-16.49,3.43-16.67,3.47l-.4.09-4.09-1.65-6.65,1.84v1.37Z"/>
  <path class="cls-9" d="M328.62,157.15c.33-.1.66-.18,1.01-.27-3.62-.75-6.49-2.49-8.73-4.52v4.85c1.25.4,2.53.63,3.82.63.2,0,.4,0,.61-.02,1.05-.22,2.16-.44,3.29-.66Z"/>
  <path class="cls-9" d="M368.49,145.99l.39-17.97c-12.5,15.37-20.23,22.59-27.11,26.61,5.27-.97,10.65-1.91,15.72-2.71h0c-.09-.99-.21-5.06-.21-5.06l1.33-.14c2.64-.22,5.98-.47,9.88-.74Z"/>
  <path class="cls-9" d="M280.8,210.39c28.14-33.71,97.52-22.05,134.2-12.17,31.51,8.49,53.87,15.99,84.23,3.42v141.11h-218.43v-132.37ZM440.48,226.14c-.68-.03-.87-.19-1.1-.19-.18,0-.28.13-.33.52-.15.84-.56,3.35-.56,3.99,0,.35.03.47.23.47.16,0,.27-.09.33-.48.07-.65.56-1.66,1.48-2.16.91-.5,2.59-.59,3.99-.59h5.44c-3.71,5.85-7.81,12.12-11.72,18.22-.33.51-.41.64-.41.84s.16.27.47.27c5.61,0,10.27.15,14.9.15.5,0,.69-.23.82-.72.21-.7.55-2.49.55-3.38,0-.69-.06-.86-.26-.86-.19,0-.24.16-.3.44-.08.38-.24.9-.49,1.32-.44.85-1.53,1.54-4.35,1.54h-6.83c3.91-5.97,8.14-12.32,11.97-18.51.1-.21.2-.38.2-.54,0-.13-.19-.21-.46-.21h-8.45c-1.13,0-2.47,0-5.11-.09ZM365.57,247.49c2.16,0,4.89-.29,6.69-1.24.33-.19.36-.24.36-1v-3.04c0-1.39,0-2.5.03-3.34.03-.96.31-1.44,1.07-1.57.32-.07.52-.08.72-.08.22,0,.39-.07.39-.22,0-.23-.2-.28-.56-.28-.9,0-2.38.08-3.25.08s-2.57-.08-4.03-.08c-.38,0-.57.05-.57.28,0,.15.17.22.41.22.38,0,.85.02,1.08.08.91.19,1.16.63,1.19,1.57.05.84.05,1.89.05,3.27v2.61c0,.47-.13.83-.54,1.03-.67.3-1.63.3-2.36.3-5.85,0-9.66-4.46-9.66-10.43,0-3.42,1.01-5.49,2.56-6.8,1.95-1.6,3.97-1.72,5.5-1.72,3.13,0,5.34,1.28,6.17,2.18.74.76.89,1.65.94,2.28.03.23.09.37.29.37.22,0,.29-.14.29-.57,0-3.47.2-4.25.2-4.55,0-.19-.06-.31-.39-.33-.63-.03-1.6-.19-2.18-.3-.56-.12-2.99-.45-4.92-.45-2.32,0-4.8.2-7.44,1.82-2.53,1.52-4.83,4.62-4.83,9.06,0,7.67,6.02,10.86,12.8,10.86ZM374.95,226.14c-.32,0-.52.09-.52.24,0,.2.2.27.43.27.33,0,.8.16,1.16.36.53.3,1.2.99,1.9,2.01.97,1.44,4.69,7.55,4.9,7.98.34.81.62,1.43.62,2.93v2.28c0,.44,0,1.61-.08,2.76-.05.81-.3,1.42-.87,1.53-.24.06-.58.11-.97.11-.31,0-.44.09-.44.22,0,.23.22.29.6.29,1.02,0,2.78-.09,3.47-.09.75,0,2.49.09,4.25.09.36,0,.58-.09.58-.29,0-.12-.13-.22-.44-.22-.39,0-.99-.05-1.39-.11-.83-.11-1.08-.72-1.15-1.53-.06-1.15-.06-2.33-.06-2.76v-2.28c0-.93,0-1.79.4-2.78.5-1.19,4.39-7.71,5.3-8.82.61-.75.92-1.08,1.5-1.34.41-.23.94-.34,1.22-.34.3,0,.52-.09.52-.29,0-.15-.2-.21-.5-.21-.54,0-2.35.09-2.97.09-.8,0-1.68-.09-2.61-.09-.34,0-.47.06-.47.24s.24.23.51.29c.46.11.57.4.57.69,0,.35-.11.84-.4,1.46-.38.85-3.86,6.95-4.16,7.61-.44-.77-4.31-7.46-4.7-8.3-.21-.39-.34-.71-.34-.93s.13-.44.39-.52c.42-.1.62-.12.62-.3,0-.15-.15-.24-.44-.24-1.23,0-2.38.09-2.95.09-.92,0-3-.09-3.51-.09ZM407.36,225.75c-8.33,0-11.46,6.13-11.46,10.88s3.21,10.86,11.17,10.86c7.04,0,11.47-5,11.47-11.37s-4.3-10.37-11.19-10.37ZM429.56,225.75c-3.87,0-6.42,2.2-6.42,5.25,0,2.25,1.05,4.18,4.12,6.56l1.27,1.02c2.31,1.77,2.72,3.07,2.72,4.44,0,1.46-1.22,3.15-3.72,3.15-1.72,0-3.35-.74-3.96-2.8-.14-.47-.26-1.06-.26-1.41,0-.24-.02-.48-.28-.48-.21,0-.29.31-.32.73-.01.44-.13,2.1-.13,3.63,0,.62.07.75.52.94,1.18.53,2.44.72,4.05.72,1.46,0,3.01-.25,4.4-1.14,2-1.3,2.61-3.21,2.61-4.82,0-2.64-1.22-4.51-4.54-7.07l-.78-.58c-2.3-1.74-2.94-2.72-2.94-3.99,0-1.68,1.25-2.86,3.29-2.86,1.8,0,2.61.83,3.03,1.36.59.72.72,1.58.72,1.83,0,.33.08.5.28.5s.3-.22.3-.83c0-2.18.11-2.98.11-3.33,0-.21-.13-.29-.37-.33-.73-.2-1.89-.48-3.69-.48ZM336.69,242.03l-7.58-15.65c-.36-.72-.52-.86-.74-.86-.24,0-.39.25-.47.72l-2.75,18.11c-.14.94-.35,2.01-1.12,2.17-.43.09-.62.09-.86.09-.27,0-.44.06-.44.2,0,.24.23.31.5.31.89,0,2.25-.09,2.75-.09s1.75.09,2.91.09c.42,0,.65-.06.65-.31,0-.14-.17-.2-.41-.2-.27,0-.65-.02-1.15-.13-.48-.12-.84-.36-.84-.9,0-.43.03-.81.09-1.28l1.43-11.06h.12c.98,2.07,2.64,5.59,2.88,6.15.33.78,2.53,5.03,3.2,6.3.43.82.72,1.39.96,1.39s.4-.26,1.04-1.54l6.05-12.59h.1l1.67,12.2c.1.76.01,1.12-.14,1.19-.19.08-.29.16-.29.29,0,.17.15.25.79.3,1.11.08,4.95.17,5.64.17.4,0,.7-.09.7-.31,0-.17-.17-.2-.43-.2-.36,0-.91-.02-1.72-.26-.84-.26-1.11-1.05-1.34-2.8l-2.55-17.16c-.07-.58-.24-.86-.49-.86s-.41.22-.59.68l-7.56,15.83ZM305.17,258.08h0v1.79h0s0,0,0,0h168.5v-1.79h0s-168.5,0-168.5,0ZM470.15,298.75c0-.16-.18-.21-.49-.21-.52,0-2.35.08-2.96.08-.8,0-1.68-.08-2.6-.08-.34,0-.46.05-.46.24,0,.17.24.22.51.28.44.11.57.42.57.7,0,.36-.13.82-.38,1.45-.4.85-3.89,6.96-4.18,7.61-.44-.77-4.31-7.46-4.71-8.3-.19-.38-.33-.73-.33-.93,0-.22.14-.45.38-.5.42-.12.63-.14.63-.31,0-.16-.16-.24-.44-.24-1.25,0-2.36.08-2.96.08-.91,0-2.99-.08-3.5-.08-.33,0-.53.08-.53.24,0,.19.2.25.44.25.32,0,.78.17,1.15.36.52.3,1.22,1,1.91,2.02.97,1.45,4.69,7.55,4.89,7.99.35.8.63,1.42.63,2.92v2.26c0,.44,0,1.6-.07,2.77-.06.81-.32,1.43-.87,1.52-.24.07-.59.13-.96.13-.32,0-.45.09-.45.22,0,.22.22.27.61.27,1.02,0,2.77-.08,3.47-.08.74,0,2.49.08,4.24.08.36,0,.57-.08.57-.27,0-.13-.12-.22-.44-.22-.39,0-1.01-.06-1.39-.13-.82-.09-1.08-.71-1.13-1.52-.08-1.17-.08-2.33-.08-2.77v-2.26c0-.92,0-1.79.44-2.79.47-1.2,4.36-7.69,5.29-8.82.59-.75.89-1.09,1.47-1.36.42-.23.97-.33,1.25-.33s.5-.09.5-.28ZM347.28,319.87c1.81,0,3.81-.3,5.77-2,2.35-1.99,2.64-5.27,2.64-8.35v-2.97c0-4.2,0-4.99.06-5.88.05-.97.28-1.43,1.02-1.58.34-.06.51-.08.81-.08.34,0,.51-.07.51-.25s-.21-.24-.59-.24c-1.08,0-2.83.08-3.17.08-.01,0-1.77-.08-3.18-.08-.38,0-.58.05-.58.24s.17.25.47.25.78.02,1,.08c.92.2,1.15.63,1.21,1.58.04.89.04,1.68.04,5.88v3.48c0,2.85-.08,5.35-1.61,6.88-1.1,1.11-2.6,1.49-3.82,1.49-.94,0-2.23-.1-3.48-1.12-1.35-1.12-2.16-2.8-2.16-6.83v-3.89c0-4.2,0-4.99.06-5.88.06-.97.29-1.43,1.03-1.58.32-.06.49-.08.81-.08.27,0,.44-.07.44-.25s-.19-.24-.61-.24c-1,0-2.75.08-3.4.08-.82,0-2.59-.08-4.07-.08-.41,0-.6.05-.6.24s.15.25.47.25c.38,0,.86.02,1.07.08.92.2,1.14.63,1.2,1.58.05.89.05,1.68.05,5.88v4.06c0,4.02,1.04,6.07,2.48,7.34,2.01,1.82,4.68,1.91,6.14,1.91ZM324.64,293.42c5.11,0,7.41-3.08,7.41-6.04,0-3.26-2.77-5.22-5.05-6,1.54-1.21,2.82-2.57,2.82-4.85,0-1.47-.87-4.16-5.89-4.16-.96,0-2.03.08-3.4.08-.56,0-2.31-.08-3.78-.08-.41,0-.6.06-.6.24,0,.2.16.26.47.26.39,0,.85.02,1.08.09.92.18,1.12.62,1.17,1.56.08.9.08,1.68.08,5.89v4.88c0,2.55,0,4.74-.14,5.91-.11.81-.24,1.41-.81,1.53-.24.04-.59.11-.99.11-.33,0-.44.08-.44.21,0,.2.18.29.55.29,1.11,0,2.85-.09,3.5-.09.84,0,3.35.16,4.02.16ZM459.74,272.77c0-.18-.14-.27-.38-.32-.72-.19-1.89-.47-3.69-.47-3.85,0-6.4,2.18-6.4,5.24,0,2.25,1.03,4.19,4.1,6.57l1.28,1c2.3,1.79,2.71,3.08,2.71,4.45,0,1.46-1.22,3.15-3.72,3.15-1.71,0-3.35-.75-3.96-2.8-.15-.47-.25-1.06-.25-1.42,0-.21-.04-.47-.28-.47-.22,0-.29.3-.32.72-.03.45-.15,2.11-.15,3.62,0,.61.07.76.54.97,1.17.52,2.42.72,4.04.72,1.47,0,3.03-.27,4.42-1.15,1.98-1.3,2.6-3.21,2.6-4.83,0-2.63-1.22-4.48-4.55-7.07l-.78-.59c-2.3-1.75-2.94-2.71-2.94-4,0-1.66,1.25-2.84,3.29-2.84,1.82,0,2.62.84,3.04,1.35.57.72.72,1.59.72,1.84,0,.33.08.5.28.5.22,0,.3-.23.3-.85,0-2.17.11-2.96.11-3.33ZM419.92,298.81c-.27-.65-.43-.89-.68-.89s-.44.31-.77,1.11l-6.97,17.42c-.55,1.39-1.08,2.33-2.34,2.49-.24.03-.64.06-.88.06-.22,0-.33.05-.33.22,0,.22.17.27.52.27,1.45,0,2.97-.08,3.28-.08.85,0,2.06.08,2.94.08.3,0,.46-.05.46-.27,0-.17-.08-.22-.4-.22h-.44c-.85,0-1.1-.36-1.1-.86,0-.32.14-1,.41-1.69l1.51-3.98c.04-.15.1-.21.24-.21h6.19c.14,0,.23.06.29.19l2.21,5.88c.14.33-.06.58-.25.65-.28.03-.39.08-.39.25,0,.19.32.19.84.22,2.22.05,4.25.05,5.24.05s1.27-.05,1.27-.27c0-.19-.14-.22-.35-.22-.33,0-.75-.03-1.16-.13-.6-.13-1.39-.51-2.44-3.01-1.79-4.23-6.22-15.53-6.91-17.06ZM345.99,293.73c1.8,0,3.8-.32,5.76-2,2.34-2.02,2.63-5.27,2.63-8.37v-2.95c0-4.22,0-4.99.06-5.89.06-.97.27-1.44,1.04-1.56.32-.07.49-.09.79-.09.34,0,.49-.06.49-.26,0-.18-.2-.24-.59-.24-1.07,0-2.82.08-3.17.08-.03,0-1.76-.08-3.18-.08-.38,0-.58.06-.58.24,0,.2.17.26.47.26s.78.02,1,.09c.91.18,1.14.62,1.2,1.56.06.9.06,1.68.06,5.89v3.45c0,2.87-.08,5.37-1.62,6.88-1.11,1.12-2.61,1.5-3.82,1.5-.94,0-2.23-.1-3.48-1.13-1.36-1.11-2.16-2.8-2.16-6.82v-3.89c0-4.22,0-4.99.06-5.89.06-.97.27-1.44,1.04-1.56.31-.07.49-.09.79-.09.26,0,.44-.06.44-.26,0-.18-.2-.24-.61-.24-1.01,0-2.75.08-3.42.08-.82,0-2.57-.08-4.04-.08-.41,0-.61.06-.61.24,0,.2.16.26.47.26.4,0,.85.02,1.08.09.91.18,1.15.62,1.18,1.56.07.9.07,1.68.07,5.89v4.05c0,4.02,1.06,6.07,2.48,7.35,2.02,1.83,4.68,1.92,6.16,1.92ZM364.81,283.79l1.27,1c2.31,1.79,2.72,3.08,2.72,4.45,0,1.46-1.21,3.15-3.72,3.15-1.71,0-3.33-.75-3.96-2.8-.15-.47-.25-1.06-.25-1.42,0-.21-.03-.47-.28-.47-.23,0-.32.3-.33.72-.02.45-.15,2.11-.15,3.62,0,.61.09.76.53.97,1.19.52,2.44.72,4.05.72,1.46,0,3.02-.27,4.42-1.15,1.98-1.3,2.59-3.21,2.59-4.83,0-2.63-1.2-4.48-4.54-7.07l-.76-.59c-2.31-1.75-2.95-2.71-2.95-4,0-1.66,1.24-2.84,3.29-2.84,1.79,0,2.6.84,3.03,1.35.58.72.73,1.59.73,1.84,0,.33.06.5.26.5.22,0,.3-.23.3-.85,0-2.17.11-2.96.11-3.33,0-.18-.14-.27-.38-.32-.72-.19-1.89-.47-3.69-.47-3.86,0-6.4,2.18-6.4,5.24,0,2.25,1.05,4.19,4.11,6.57ZM378.31,280.41v4.88c0,2.68,0,4.88-.15,6.03-.08.82-.24,1.28-.81,1.4-.24.04-.57.11-.99.11-.32,0-.46.08-.46.21,0,.2.2.29.57.29,1.09,0,2.84-.09,3.49-.09.75,0,2.49.09,4.33.09.29,0,.53-.09.53-.29,0-.13-.16-.21-.44-.21-.42,0-1.03-.07-1.42-.11-.84-.12-1.04-.61-1.12-1.38-.11-1.17-.11-3.37-.11-6.05v-4.88c0-4.22,0-4.99.06-5.89.05-.97.28-1.44,1.03-1.56.33-.07.56-.09.84-.09s.43-.06.43-.28c0-.16-.23-.22-.59-.22-1.05,0-2.68.08-3.38.08-.81,0-2.55-.08-3.6-.08-.44,0-.66.06-.66.22,0,.22.18.28.45.28.32,0,.68.02.99.11.62.13.88.6.93,1.54.07.9.07,1.68.07,5.89ZM395.26,293.05c0-.16-.16-.21-.47-.21-.45,0-.97-.03-1.44-.19-.57-.19-.93-.91-.98-3.09l-.29-11.65h.08c.49.52,3.58,3.98,6.6,6.99,2.88,2.85,6.43,6.5,8.18,8.15.3.3.63.62.94.62.25,0,.37-.26.37-.87l.29-17.51c.04-1.54.24-2.12,1.02-2.34.35-.09.56-.09.85-.09.33,0,.48-.1.48-.26,0-.21-.26-.24-.6-.24-1.38,0-2.42.08-2.73.08-.58,0-1.92-.08-3.36-.08-.42,0-.73.03-.73.24,0,.16.13.26.44.26.39,0,1.06,0,1.47.16.67.28.93.81.95,2.5l.27,12.45h-.13c-.48-.44-4.23-4.43-6.09-6.32-4.06-4.02-8.26-8.55-8.61-8.9-.47-.5-.7-.87-1.02-.87-.28,0-.37.39-.37.95l-.25,16.42c-.03,2.42-.14,3.22-.86,3.44-.36.11-.88.14-1.25.14-.27,0-.44.05-.44.21,0,.25.26.29.62.29,1.44,0,2.72-.09,2.98-.09.54,0,1.63.09,3.43.09.4,0,.64-.07.64-.29ZM417.07,280.41v4.88c0,2.55,0,4.74-.13,5.91-.11.81-.25,1.41-.8,1.53-.27.04-.6.11-1.01.11-.33,0-.43.08-.43.21,0,.2.19.29.53.29,1.12,0,2.86-.09,3.51-.09,1.63,0,3.49.16,7.68.16,1.05,0,1.3,0,1.5-.72.13-.55.35-2.44.35-3.08,0-.27,0-.49-.22-.49-.18,0-.25.11-.29.41-.2,1.15-.53,1.72-1.27,2.06-.71.33-1.87.33-2.58.33-2.84,0-3.28-.41-3.35-2.33-.02-.81,0-3.36,0-4.3v-2.19c0-.16.04-.28.17-.28.67,0,3.42.03,3.95.08,1.02.12,1.41.52,1.55,1.08.08.35.08.73.12,1,0,.14.06.23.24.23.26,0,.26-.29.26-.5s.04-1.32.11-1.86c.08-1.42.21-1.87.21-2.04s-.07-.21-.18-.21c-.14,0-.25.13-.46.36-.23.28-.66.36-1.32.41-.64.06-3.83.06-4.46.06-.13,0-.17-.11-.17-.32v-7.01c0-.19.07-.26.17-.26.57,0,3.5.04,3.96.09,1.38.17,1.67.51,1.86,1,.14.33.17.82.17,1.01,0,.25.04.38.25.38.18,0,.25-.16.28-.3.04-.32.1-1.55.15-1.84.07-1.26.22-1.6.22-1.79,0-.14-.02-.25-.17-.25s-.3.08-.46.11c-.21.05-.65.11-1.19.17-.51.02-6.04.02-6.93.02-.77,0-2.51-.08-3.98-.08-.42,0-.61.06-.61.24,0,.2.16.26.48.26.38,0,.85.02,1.06.09.93.18,1.14.62,1.2,1.56.06.9.06,1.68.06,5.89ZM437.12,293.73c1.48,0,3.03-.27,4.41-1.15,2-1.3,2.61-3.21,2.61-4.83,0-2.63-1.22-4.48-4.54-7.07l-.78-.59c-2.31-1.75-2.95-2.71-2.95-4,0-1.66,1.25-2.84,3.31-2.84,1.78,0,2.61.84,3,1.35.58.72.73,1.59.73,1.84,0,.33.08.5.29.5s.31-.23.31-.85c0-2.17.1-2.96.1-3.33,0-.18-.14-.27-.38-.32-.72-.19-1.89-.47-3.69-.47-3.87,0-6.4,2.18-6.4,5.24,0,2.25,1.05,4.19,4.08,6.57l1.3,1c2.3,1.79,2.71,3.08,2.71,4.45,0,1.46-1.22,3.15-3.7,3.15-1.74,0-3.37-.75-3.98-2.8-.14-.47-.24-1.06-.24-1.42,0-.21-.03-.47-.29-.47-.21,0-.31.3-.33.72-.02.45-.15,2.11-.15,3.62,0,.61.08.76.52.97,1.21.52,2.45.72,4.07.72ZM379.58,319.22c.32.3.65.6.94.6.27,0,.37-.25.37-.86l.32-17.51c.02-1.56.24-2.13,1.02-2.35.33-.08.55-.08.83-.08.33,0,.5-.09.5-.25,0-.22-.27-.24-.64-.24-1.35,0-2.41.08-2.71.08-.58,0-1.91-.08-3.34-.08-.43,0-.73.02-.73.24,0,.17.12.25.44.25.39,0,1.06,0,1.47.17.67.27.93.81.94,2.5l.27,12.45h-.13c-.47-.43-4.21-4.44-6.09-6.33-4.06-4.01-8.28-8.54-8.61-8.89-.46-.51-.73-.87-1.03-.87-.27,0-.35.39-.35.94l-.26,16.42c-.02,2.42-.13,3.23-.85,3.45-.39.11-.89.14-1.25.14-.28,0-.43.05-.43.22,0,.25.23.27.6.27,1.43,0,2.74-.08,3-.08.52,0,1.63.08,3.43.08.4,0,.64-.05.64-.27,0-.17-.17-.22-.48-.22-.43,0-.97-.03-1.43-.2-.55-.19-.92-.92-.97-3.07l-.31-11.66h.08c.5.53,3.58,4,6.6,6.98,2.88,2.86,6.43,6.5,8.17,8.17ZM399.5,319.87c2.17,0,4.9-.3,6.69-1.23.32-.21.36-.25.36-1.03v-3.03c0-1.4,0-2.49.04-3.34.01-.96.3-1.43,1.04-1.57.34-.06.52-.1.77-.1.2,0,.35-.05.35-.21,0-.23-.2-.29-.55-.29-.91,0-2.41.09-3.23.09s-2.59-.09-4.04-.09c-.39,0-.57.06-.57.29,0,.16.16.21.4.21.39,0,.87.03,1.09.1.9.19,1.15.64,1.19,1.57.02.85.02,1.89.02,3.28v2.61c0,.47-.12.83-.53,1.03-.65.3-1.63.3-2.37.3-5.83,0-9.62-4.46-9.62-10.42,0-3.4.97-5.49,2.53-6.8,1.95-1.61,3.97-1.71,5.5-1.71,3.13,0,5.34,1.28,6.17,2.16.73.78.87,1.66.95,2.29.04.23.09.37.29.37s.29-.15.29-.59c0-3.47.19-4.24.19-4.55,0-.19-.05-.29-.39-.32-.62-.03-1.59-.2-2.18-.3-.56-.11-3-.45-4.92-.45-2.33,0-4.8.19-7.47,1.81-2.51,1.52-4.81,4.63-4.81,9.06,0,7.66,6.02,10.87,12.81,10.87ZM446.63,318.97c.73.39,1.42.52,2.97.52h2.64c.33,0,.53-.05.53-.27,0-.13-.11-.22-.32-.22-.23,0-.48-.03-.78-.09-.42-.08-1.55-.27-3.1-1.89-1.66-1.72-3.56-4.19-6.04-7.29,2.8-2.28,3.67-4.16,3.67-6.22,0-1.85-1.11-3.27-1.89-3.8-1.5-1.03-3.35-1.18-5.11-1.18-.85,0-2.97.08-3.89.08-.59,0-2.33-.08-3.8-.08-.43,0-.61.05-.61.24s.16.25.48.25c.38,0,.85.02,1.08.08.92.2,1.13.63,1.18,1.58.07.89.07,1.68.07,5.88v4.88c0,2.56,0,4.74-.15,5.91-.11.81-.24,1.43-.81,1.52-.24.07-.57.13-1,.13-.32,0-.44.09-.44.22,0,.19.2.27.55.27,1.12,0,2.86-.08,3.39-.08.41,0,2.48.08,4.07.08.36,0,.54-.08.54-.27,0-.13-.11-.22-.31-.22-.35,0-.95-.06-1.36-.13-.84-.09-1.01-.71-1.09-1.52-.14-1.17-.14-3.35-.14-5.92v-.4c0-.16.1-.22.22-.22l2.42.05c.2,0,.36.02.49.18.36.42,1.65,2.31,2.76,3.83,1.54,2.14,2.61,3.45,3.79,4.09ZM310.11,298.77c0,.19.16.25.49.25.39,0,.85.02,1.08.08.91.2,1.12.63,1.18,1.58.05.89.05,1.68.05,5.88v4.88c0,2.56,0,4.74-.13,5.91-.13.81-.26,1.43-.81,1.52-.25.07-.58.13-.99.13-.32,0-.44.09-.44.22,0,.19.19.27.53.27,1.11,0,2.86-.08,3.5-.08.79,0,2.54.08,4.32.08.33,0,.57-.08.57-.27,0-.13-.15-.22-.46-.22-.41,0-1.03-.06-1.4-.13-.85-.09-1.01-.71-1.09-1.49-.13-1.2-.13-3.38-.13-5.94v-2.44c0-.13.08-.16.15-.16h10.61c.09,0,.17.06.17.16v2.44c0,2.56,0,4.74-.16,5.91-.11.81-.24,1.43-.81,1.52-.22.07-.57.13-.98.13-.33,0-.47.09-.47.22,0,.19.22.27.6.27,1.08,0,2.84-.08,3.48-.08.77,0,2.51.08,4.31.08.34,0,.55-.08.55-.27,0-.13-.15-.22-.44-.22-.41,0-1.04-.06-1.42-.13-.84-.09-1-.71-1.08-1.49-.14-1.2-.14-3.38-.14-5.94v-4.88c0-4.2,0-4.99.05-5.88.06-.97.29-1.43,1.03-1.58.34-.06.58-.08.82-.08.32,0,.49-.07.49-.25s-.2-.24-.58-.24c-1.09,0-2.83.08-3.51.08-.74,0-2.5-.08-3.99-.08-.38,0-.58.05-.58.24s.17.25.46.25c.4,0,.87.02,1.09.08.92.2,1.13.63,1.19,1.58.07.89.07,1.68.07,5.88v.59c0,.15-.08.19-.17.19h-10.61c-.07,0-.15-.04-.15-.19v-.59c0-4.2,0-4.99.05-5.88.05-.97.28-1.43,1.02-1.58.35-.06.59-.08.81-.08.34,0,.49-.07.49-.25s-.18-.24-.57-.24c-1.07,0-2.82.08-3.5.08-.75,0-2.51-.08-3.99-.08-.39,0-.59.05-.59.24Z"/>
  <polygon class="cls-9" points="417.54 164.62 417.94 158.28 377.92 157.87 378.32 164.54 417.54 164.62"/>
  <path class="cls-9" d="M499.22,149.99c-7.78.07-105.31.92-124.19,2.24-3.48.24-7.88.77-12.69,1.46l2.61,2.59,5.41-.63.35,11.04-9.75,3.56c-.48.36-2.33,5.37-3.88,9.37,13.36.56,26.78,2.29,41.52,4.69,10.44,1.69,23.33,4.96,36.69,6.96-2.16-5.61-6.73-17.15-7.27-17.45l-9.66-6.74-42.37-.28-.72-11.31,123.95-.26v-5.24Z"/>
  <path class="cls-9" d="M316.21,159.67c.83-.17,1.73-.35,2.66-.56-.93-.37-1.85-.83-2.71-1.37l.05,1.93Z"/>
  <path class="cls-9" d="M302.75,143.23c-.07-.51.13-1.02.6-1.31.59-.32,1.36-.13,1.7.47.03.05.93,1.59,2.5,3.69.67-1.03,1.72-1.84,3.3-1.84,2.94,0,4.57,3.37,5.05,5.35l.17,5.11c.73.55,1.55,1.03,2.36,1.44v-6.4c-2.83-3.45-4.04-6.81-4.06-6.87-.23-.65.11-1.36.74-1.6.66-.22,1.37.12,1.6.76.06.19.59,1.63,1.72,3.52v-4.37l1.03-1.28-18.7.44,1.99,2.89Z"/>
  <path class="cls-9" d="M418.54,303.61c-.07,0-.13.12-.17.24l-2.55,6.82c-.05.12,0,.2.1.2h5.11c.13,0,.17-.08.13-.16l-2.51-6.86c0-.12-.04-.24-.13-.24Z"/>
  <path class="cls-9" d="M285.44,172.47c4.07-1.49,8.3-2.84,12.62-4.07l-2.76-1.55v-4.07c-2.71,3.23-6.1,6.8-9.87,9.69Z"/>
  <path class="cls-9" d="M280.8,176.95v13.6c3.08-1.07,6.17-2.06,9.3-2.96.04-1.28.3-7.51.54-9.03.32-1.94,2.27-4.2,2.48-4.47l.21-.22,6.38-2.31v-1.09c-6.07,1.73-12.03,3.66-17.59,5.87-.08.03-.84.4-1.33.59Z"/>
  <path class="cls-9" d="M323.27,291.84c.75.31,1.38.33,2.02.33,1.26,0,3.36-.65,3.36-3.54,0-1.72-.58-4.05-2.69-5.52-.6-.4-1.22-.61-2.3-.66-.5-.05-.76-.05-1.2-.05-.1,0-.17.08-.17.2v6.57c0,1.84.08,2.32.98,2.67Z"/>
  <path class="cls-9" d="M354.81,179.54c2.09-5.25,4.75-11.35,4.9-11.43l8.49-3.12-.22-6.55-3.36.39-.57.06-.03-.02c-3.06.28-18.46,1.82-36.94,5.3-.06.12-.2.23-.31.34-1.16,1.16-2.53,3.6-2.18,5.09.09.41.33.99,1.54,1.41,5.12,1.81,4.96,7.48,4.94,8.62,7.32-.51,15.54-.59,23.74-.08Z"/>
  <path class="cls-9" d="M406.55,227.08c-3.2,0-6.83,1.78-6.83,8.69,0,5.77,3.19,10.35,8.52,10.35,1.93,0,6.44-.95,6.44-8.97,0-6.22-3.58-10.07-8.13-10.07Z"/>
  <path class="cls-9" d="M322.48,281.19c.25.06.66.09,1.31.09.92,0,1.52-.12,2-.54.72-.57,1.14-1.58,1.14-2.95,0-1.85-1.08-4.3-3.48-4.3-.38,0-.63,0-.91.06-.19.06-.25.17-.25.47v6.86c0,.2.08.27.2.3Z"/>
  <path class="cls-9" d="M280.8,199.59c38.22-18.59,78.65-15.5,117.75-7.62,28.1,5.65,74.17,23.19,98.01.83-28.92,7.72-52.08,3.28-82.28-3.49-36.77-8.25-105.19-16.11-133.48,9.1v1.18Z"/>
  <path class="cls-9" d="M302.18,169.82v1.36l20.17-.48c-.08-.19-.14-.37-.16-.56-.43-1.81.38-3.79,1.3-5.27-6.91,1.37-14.17,3.01-21.31,4.95Z"/>
  <path class="cls-9" d="M295.97,161.96l4.27-1.18c.02-.21,0-.32,0-.49l.16-4.21c-.99,1.44-2.5,3.54-4.43,5.87Z"/>
  <path class="cls-9" d="M328.97,179.79h0s0,.08,0,.08c.22-.67-.01-.1,0-.08Z"/>
  <path class="cls-9" d="M294.79,175.98c-.66.81-1.58,2.15-1.7,3.02-.2,1.19-.41,5.73-.5,7.9,11.95-3.22,24.16-6.29,36.38-7.1-.02-.67-.19-5.23-3.68-6.46-.21-.07-.29-.08-.48-.16-.1.03-.33-.02-.46-.02l-23.2.52-6.37,2.31Z"/>
  <path class="cls-9" d="M442.91,304.9c0-3.93-2.58-5.06-4.25-5.06-.68,0-1.17,0-1.47.11-.17.06-.24.16-.24.39v8.42c0,.31.07.42.24.5.59.2,1.43.27,2.12.27,1.11,0,1.48-.1,1.96-.47.84-.62,1.64-1.9,1.64-4.17Z"/>
  <path class="cls-9" d="M309.32,161.13c.9-.2,2.44-.53,4.48-.96-.04-.1-.05-.23-.07-.34l-.1-3.78c-1.66-1.27-3.17-2.71-4.51-4.15l.2,9.24Z"/>
  <path class="cls-9" d="M390.72,119.77c-1.8,1.96-1.86,5.04-1.86,5.04l.51,19.93c2.04-.11,4.18-.23,6.33-.33l-.52-15.97c0-.1-.07-8.29-4.47-8.66Z"/>
  <path class="cls-9" d="M405.05,143.9c2.72-.15,5.49-.3,8.28-.43l-.15-22.73c-16.53-6.25-24.43-10.03-26.42-10.93-.23-.11-.54-.2-.73-.35-2.92-1.9-2.67-4.02-2.67-4.02.26.12,13.9,6.6,29.79,12.66l-.02-3.87c-4.46-1.7-3.2-1.16-4.29-1.77-2.11-1.26-1.73-3.34-1.73-3.34.09.03,2.19.96,5.99,2.44l-.04-3.58-33.84-6.13s-.27,43.43-.28,43.47c2.54-.16,5.18-.31,7.95-.45l-.52-20.03c0-.19.04-4.4,2.83-7.09,1.55-1.5,3.63-2.22,6.16-2.14,6.98.26,9.25,6.82,9.47,10.3l.23,17.98Z"/>
  <path class="cls-9" d="M499.22,142.02c-7.34.31-110.53,4.7-139.37,7.08-.02.57.06,2.15.06,2.15l.03.34c5.61-.86,10.92-1.56,14.92-1.85,19.62-1.37,122.3-2.19,123.35-2.19,0,0,.56.02,1,.05v-5.59Z"/>
  <path class="cls-9" d="M398.17,144.26c1.46-.08,2.93-.16,4.42-.23l-.25-18.01c0-.3-.59-7.69-7.05-7.91-.58-.02-1.13.02-1.66.12,3.98,2.61,4.03,9.83,4.03,10.15l.51,15.89Z"/>
  <path class="cls-9" d="M415.66,121.68l.14,21.66c25.19-1.27,51.85-2.45,67.79-3.15-24.4-3.66-49.33-11.6-67.94-18.52Z"/>
  <path class="cls-9" d="M499.22,134.02c-36.12-3.36-68.92-13.41-83.62-18.85l.04,3.86c21.15,7.93,50.76,18.03,78.51,20.71,1.7-.08,3.85-.24,5.06-.35v-5.38Z"/>
  <path class="cls-9" d="M369.14,92.09l.1.91s2.3,1.57,2.68,1.81l4.87-3.84s-.58-4.29-.58-4.29l-7.08,5.42Z"/>
  <path class="cls-9" d="M499.22,57.25h-218.43v115.39c10.52-5.87,18.67-19.55,18.75-19.7.24-.33.96-1.52.96-1.52l.28-6.68-4.61-6.77,4.07-.1-.16-1.12-1.5-.56.41-2.4,21.74-.29.53,2.37-1.9.84-.16.72,5.59-.14-3.91,4.78v6.86c2.93,3.3,7.38,6.55,14.18,5.91.21-.03.66-.11.93-.19,8.25-3.4,16.18-9.85,32.2-29.77.2-.23.46-.36.74-.44l.35-17.44-6.55-5,7.23-5.68-3.06-1.84-.43-3.49,10.35-7.92,38.81,7.18-.45,4.06-3.51,3.48,8.52,1.82v3.15l-4.67,4.68.04,5.04c14.18,5.33,47.03,15.81,83.64,19.21V57.25Z"/>
  <path class="cls-9" d="M371.78,107.09l-.8,38.74c1.73-.13,3.57-.24,5.54-.35-.05-.08-.05-.19-.05-.28l.25-41.42-4.94,3.31Z"/>
  <polygon class="cls-9" points="370.6 104.89 379.3 99.35 379.58 99.41 413.89 105.62 417.76 101.64 378.01 93.16 366.79 101.99 370.6 104.89"/>
  <polygon class="cls-9" points="412.85 93.17 412.95 92.28 378.62 85.92 379.2 90.88 408.88 97.21 412.85 93.17"/>
  <path class="cls-10" d="M504.97,51.75h.03v296.51h-230V51.75h229.97ZM502.8,54.41l-225.02.12v291.5h225.02V54.41Z"/>
  <path class="cls-9" d="M277.78,54.53l225.02-.12v291.62h-225.02V54.53ZM279.62,344.78h220.99V56.94l-.96,286.94-218.89-.19-.75-.83V56.93h220.61s-220.61-.62-220.61-.62v.62h-.38v287.85ZM295.31,166.85v-4.07c-2.71,3.23-6.1,6.8-9.87,9.69,4.07-1.49,8.3-2.84,12.62-4.07l-2.76-1.55ZM302.73,137.6v.22l14.05-.33c.09-.15.06-.34.09-.52l.11-.93-14.49.19.23,1.38ZM300.76,140.34l1.99,2.89c-.07-.51.13-1.02.6-1.31.59-.32,1.36-.13,1.7.47.03.05.93,1.59,2.5,3.69.67-1.03,1.72-1.84,3.3-1.84,2.94,0,4.57,3.37,5.05,5.35l.17,5.11c.73.55,1.55,1.03,2.36,1.44v-6.4c-2.83-3.45-4.04-6.81-4.06-6.87-.23-.65.11-1.36.74-1.6.66-.22,1.37.12,1.6.76.06.19.59,1.63,1.72,3.52v-4.37l1.03-1.28-18.7.44ZM316.16,157.74l.05,1.93c.83-.17,1.73-.35,2.66-.56-.93-.37-1.85-.83-2.71-1.37ZM309.12,151.89l.2,9.24c.9-.2,2.44-.53,4.48-.96-.04-.1-.05-.23-.07-.34l-.1-3.78c-1.66-1.27-3.17-2.71-4.51-4.15ZM313.54,152.71l-.07-2.64c-.28-1-1.24-3.34-2.62-3.34-.93,0-1.39.83-1.6,1.5,1.22,1.48,2.68,3.04,4.29,4.48ZM302.75,160.11l1.85-.52,2.25.87-.26-11.37v-.13s.01-.02.01-.03c-1.61-2.02-2.74-3.75-3.31-4.66l-.54,15.84ZM297.78,164.03v1.37l3.64,2.04c25.31-6.89,52.04-9.99,60.35-10.83l-2.47-2.48c-9.74,1.51-20.82,3.58-30.13,5.41-.41.12-3.59.73-3.59.73,0,0-16.49,3.43-16.67,3.47l-.4.09-4.09-1.65-6.65,1.84ZM324.72,157.83c.2,0,.4,0,.61-.02,1.05-.22,2.16-.44,3.29-.66.33-.1.66-.18,1.01-.27-3.62-.75-6.49-2.49-8.73-4.52v4.85c1.25.4,2.53.63,3.82.63ZM357.28,146.86l1.33-.14c2.64-.22,5.98-.47,9.88-.74l.39-17.97c-12.5,15.37-20.23,22.59-27.11,26.61,5.27-.97,10.65-1.91,15.72-2.71h0c-.09-.99-.21-5.06-.21-5.06ZM331.08,179.62c7.32-.51,15.54-.59,23.74-.08,2.09-5.25,4.75-11.35,4.9-11.43l8.49-3.12-.22-6.55-3.36.39-.57.06-.03-.02c-3.06.28-18.46,1.82-36.94,5.3-.06.12-.2.23-.31.34-1.16,1.16-2.53,3.6-2.18,5.09.09.41.33.99,1.54,1.41,5.12,1.81,4.96,7.48,4.94,8.62ZM323.49,164.86c-6.91,1.37-14.17,3.01-21.31,4.95v1.36l20.17-.48c-.08-.19-.14-.37-.16-.56-.43-1.81.38-3.79,1.3-5.27ZM301.16,173.67l-6.37,2.31c-.66.81-1.58,2.15-1.7,3.02-.2,1.19-.41,5.73-.5,7.9,11.95-3.22,24.16-6.29,36.38-7.1,0,.05,0,.08,0,.08.22-.67-.01-.1,0-.08h0c-.02-.67-.19-5.23-3.68-6.46-.21-.07-.29-.08-.48-.16-.1.03-.33-.02-.46-.02l-23.2.52ZM300.24,160.3l.16-4.21c-.99,1.44-2.5,3.54-4.43,5.87l4.27-1.18c.02-.21,0-.32,0-.49ZM282.13,176.36c-.08.03-.84.4-1.33.59v13.6c3.08-1.07,6.17-2.06,9.3-2.96.04-1.28.3-7.51.54-9.03.32-1.94,2.27-4.2,2.48-4.47l.21-.22,6.38-2.31v-1.09c-6.07,1.73-12.03,3.66-17.59,5.87ZM280.8,198.4v1.18c38.22-18.59,78.65-15.5,117.75-7.62,28.1,5.65,74.17,23.19,98.01.83-28.92,7.72-52.08,3.28-82.28-3.49-36.77-8.25-105.19-16.11-133.48,9.1ZM280.8,210.39v132.37h218.43v-141.11c-30.36,12.57-52.72,5.07-84.23-3.42-36.68-9.88-106.06-21.54-134.2,12.17ZM499.22,183.64v-25.95l-78.79.56-.44,6.93,9.33,6.53c.45.27,6.76,14.21,8.28,19.9,8.59,1.21,17.3,2.07,25.59,2.07,14.14,0,27.05-2.5,36.03-10.04ZM499.22,155.24v-5.24c-7.78.07-105.31.92-124.19,2.24-3.48.24-7.88.77-12.69,1.46l2.61,2.59,5.41-.63.35,11.04-9.75,3.56c-.48.36-2.33,5.37-3.88,9.37,13.36.56,26.78,2.29,41.52,4.69,10.44,1.69,23.33,4.96,36.69,6.96-2.16-5.61-6.73-17.15-7.27-17.45l-9.66-6.74-42.37-.28-.72-11.31,123.95-.26ZM377.92,157.87l.4,6.67,39.22.08.41-6.34-40.02-.41ZM499.22,147.61v-5.59c-7.34.31-110.53,4.7-139.37,7.08-.02.57.06,2.15.06,2.15l.03.34c5.61-.86,10.92-1.56,14.92-1.85,19.62-1.37,122.3-2.19,123.35-2.19,0,0,.56.02,1,.05ZM366.79,101.99l3.81,2.89,8.7-5.53.28.06,34.32,6.21,3.87-3.98-39.76-8.48-11.21,8.83ZM376.79,90.97s-.58-4.29-.58-4.29l-7.08,5.42.1.91s2.3,1.57,2.68,1.81l4.87-3.84ZM379.2,90.88l29.68,6.33,3.97-4.04.09-.89-34.33-6.36.58,4.96ZM397.66,128.37l.51,15.89c1.46-.08,2.93-.16,4.42-.23l-.25-18.01c0-.3-.59-7.69-7.05-7.91-.58-.02-1.13.02-1.66.12,3.98,2.61,4.03,9.83,4.03,10.15ZM395.18,128.43c0-.1-.07-8.29-4.47-8.66-1.8,1.96-1.86,5.04-1.86,5.04l.51,19.93c2.04-.11,4.18-.23,6.33-.33l-.52-15.97ZM404.82,125.92l.23,17.98c2.72-.15,5.49-.3,8.28-.43l-.15-22.73c-16.53-6.25-24.43-10.03-26.42-10.93-.23-.11-.54-.2-.73-.35-2.92-1.9-2.67-4.02-2.67-4.02.26.12,13.9,6.6,29.79,12.66l-.02-3.87c-4.46-1.7-3.2-1.16-4.29-1.77-2.11-1.26-1.73-3.34-1.73-3.34.09.03,2.19.96,5.99,2.44l-.04-3.58-33.84-6.13s-.27,43.43-.28,43.47c2.54-.16,5.18-.31,7.95-.45l-.52-20.03c0-.19.04-4.4,2.83-7.09,1.55-1.5,3.63-2.22,6.16-2.14,6.98.26,9.25,6.82,9.47,10.3ZM376.48,145.2l.25-41.42-4.94,3.31-.8,38.74c1.73-.13,3.57-.24,5.54-.35-.05-.08-.05-.19-.05-.28ZM415.8,143.35c25.19-1.27,51.85-2.45,67.79-3.15-24.4-3.66-49.33-11.6-67.94-18.52l.14,21.66ZM499.22,139.4v-5.38c-36.12-3.36-68.92-13.41-83.62-18.85l.04,3.86c21.15,7.93,50.76,18.03,78.51,20.71,1.7-.08,3.85-.24,5.06-.35ZM499.22,131.72V57.25h-218.43v115.39c10.52-5.87,18.67-19.55,18.75-19.7.24-.33.96-1.52.96-1.52l.28-6.68-4.61-6.77,4.07-.1-.16-1.12-1.5-.56.41-2.4,21.74-.29.53,2.37-1.9.84-.16.72,5.59-.14-3.91,4.78v6.86c2.93,3.3,7.38,6.55,14.18,5.91.21-.03.66-.11.93-.19,8.25-3.4,16.18-9.85,32.2-29.77.2-.23.46-.36.74-.44l.35-17.44-6.55-5,7.23-5.68-3.06-1.84-.43-3.49,10.35-7.92,38.81,7.18-.45,4.06-3.51,3.48,8.52,1.82v3.15l-4.67,4.68.04,5.04c14.18,5.33,47.03,15.81,83.64,19.21Z"/>
  <path class="cls-8" d="M277.78,54.53l225.02-.12v291.62h-225.02V54.53ZM279.62,344.78h220.99V56.94l-.96,286.94-218.89-.19-.75-.83V56.93h220.61s-220.61-.62-220.61-.62v.62h-.38v287.85ZM295.31,166.85v-4.07c-2.71,3.23-6.1,6.8-9.87,9.69,4.07-1.49,8.3-2.84,12.62-4.07l-2.76-1.55ZM302.73,137.6v.22l14.05-.33c.09-.15.06-.34.09-.52l.11-.93-14.49.19.23,1.38ZM300.76,140.34l1.99,2.89c-.07-.51.13-1.02.6-1.31.59-.32,1.36-.13,1.7.47.03.05.93,1.59,2.5,3.69.67-1.03,1.72-1.84,3.3-1.84,2.94,0,4.57,3.37,5.05,5.35l.17,5.11c.73.55,1.55,1.03,2.36,1.44v-6.4c-2.83-3.45-4.04-6.81-4.06-6.87-.23-.65.11-1.36.74-1.6.66-.22,1.37.12,1.6.76.06.19.59,1.63,1.72,3.52v-4.37l1.03-1.28-18.7.44ZM316.16,157.74l.05,1.93c.83-.17,1.73-.35,2.66-.56-.93-.37-1.85-.83-2.71-1.37ZM309.12,151.89l.2,9.24c.9-.2,2.44-.53,4.48-.96-.04-.1-.05-.23-.07-.34l-.1-3.78c-1.66-1.27-3.17-2.71-4.51-4.15ZM313.54,152.71l-.07-2.64c-.28-1-1.24-3.34-2.62-3.34-.93,0-1.39.83-1.6,1.5,1.22,1.48,2.68,3.04,4.29,4.48ZM302.75,160.11l1.85-.52,2.25.87-.26-11.37v-.13s.01-.02.01-.03c-1.61-2.02-2.74-3.75-3.31-4.66l-.54,15.84ZM297.78,164.03v1.37l3.64,2.04c25.31-6.89,52.04-9.99,60.35-10.83l-2.47-2.48c-9.74,1.51-20.82,3.58-30.13,5.41-.41.12-3.59.73-3.59.73,0,0-16.49,3.43-16.67,3.47l-.4.09-4.09-1.65-6.65,1.84ZM324.72,157.83c.2,0,.4,0,.61-.02,1.05-.22,2.16-.44,3.29-.66.33-.1.66-.18,1.01-.27-3.62-.75-6.49-2.49-8.73-4.52v4.85c1.25.4,2.53.63,3.82.63ZM357.28,146.86l1.33-.14c2.64-.22,5.98-.47,9.88-.74l.39-17.97c-12.5,15.37-20.23,22.59-27.11,26.61,5.27-.97,10.65-1.91,15.72-2.71h0c-.09-.99-.21-5.06-.21-5.06ZM331.08,179.62c7.32-.51,15.54-.59,23.74-.08,2.09-5.25,4.75-11.35,4.9-11.43l8.49-3.12-.22-6.55-3.36.39-.57.06-.03-.02c-3.06.28-18.46,1.82-36.94,5.3-.06.12-.2.23-.31.34-1.16,1.16-2.53,3.6-2.18,5.09.09.41.33.99,1.54,1.41,5.12,1.81,4.96,7.48,4.94,8.62ZM323.49,164.86c-6.91,1.37-14.17,3.01-21.31,4.95v1.36l20.17-.48c-.08-.19-.14-.37-.16-.56-.43-1.81.38-3.79,1.3-5.27ZM301.16,173.67l-6.37,2.31c-.66.81-1.58,2.15-1.7,3.02-.2,1.19-.41,5.73-.5,7.9,11.95-3.22,24.16-6.29,36.38-7.1,0,.05,0,.08,0,.08.22-.67-.01-.1,0-.08h0c-.02-.67-.19-5.23-3.68-6.46-.21-.07-.29-.08-.48-.16-.1.03-.33-.02-.46-.02l-23.2.52ZM300.24,160.3l.16-4.21c-.99,1.44-2.5,3.54-4.43,5.87l4.27-1.18c.02-.21,0-.32,0-.49ZM282.13,176.36c-.08.03-.84.4-1.33.59v13.6c3.08-1.07,6.17-2.06,9.3-2.96.04-1.28.3-7.51.54-9.03.32-1.94,2.27-4.2,2.48-4.47l.21-.22,6.38-2.31v-1.09c-6.07,1.73-12.03,3.66-17.59,5.87ZM280.8,198.4v1.18c38.22-18.59,78.65-15.5,117.75-7.62,28.1,5.65,74.17,23.19,98.01.83-28.92,7.72-52.08,3.28-82.28-3.49-36.77-8.25-105.19-16.11-133.48,9.1ZM280.8,210.39v132.37h218.43v-141.11c-30.36,12.57-52.72,5.07-84.23-3.42-36.68-9.88-106.06-21.54-134.2,12.17ZM499.22,183.64v-25.95l-78.79.56-.44,6.93,9.33,6.53c.45.27,6.76,14.21,8.28,19.9,8.59,1.21,17.3,2.07,25.59,2.07,14.14,0,27.05-2.5,36.03-10.04ZM499.22,155.24v-5.24c-7.78.07-105.31.92-124.19,2.24-3.48.24-7.88.77-12.69,1.46l2.61,2.59,5.41-.63.35,11.04-9.75,3.56c-.48.36-2.33,5.37-3.88,9.37,13.36.56,26.78,2.29,41.52,4.69,10.44,1.69,23.33,4.96,36.69,6.96-2.16-5.61-6.73-17.15-7.27-17.45l-9.66-6.74-42.37-.28-.72-11.31,123.95-.26ZM377.92,157.87l.4,6.67,39.22.08.41-6.34-40.02-.41ZM499.22,147.61v-5.59c-7.34.31-110.53,4.7-139.37,7.08-.02.57.06,2.15.06,2.15l.03.34c5.61-.86,10.92-1.56,14.92-1.85,19.62-1.37,122.3-2.19,123.35-2.19,0,0,.56.02,1,.05ZM366.79,101.99l3.81,2.89,8.7-5.53.28.06,34.32,6.21,3.87-3.98-39.76-8.48-11.21,8.83ZM376.79,90.97s-.58-4.29-.58-4.29l-7.08,5.42.1.91s2.3,1.57,2.68,1.81l4.87-3.84ZM379.2,90.88l29.68,6.33,3.97-4.04.09-.89-34.33-6.36.58,4.96ZM397.66,128.37l.51,15.89c1.46-.08,2.93-.16,4.42-.23l-.25-18.01c0-.3-.59-7.69-7.05-7.91-.58-.02-1.13.02-1.66.12,3.98,2.61,4.03,9.83,4.03,10.15ZM395.18,128.43c0-.1-.07-8.29-4.47-8.66-1.8,1.96-1.86,5.04-1.86,5.04l.51,19.93c2.04-.11,4.18-.23,6.33-.33l-.52-15.97ZM404.82,125.92l.23,17.98c2.72-.15,5.49-.3,8.28-.43l-.15-22.73c-16.53-6.25-24.43-10.03-26.42-10.93-.23-.11-.54-.2-.73-.35-2.92-1.9-2.67-4.02-2.67-4.02.26.12,13.9,6.6,29.79,12.66l-.02-3.87c-4.46-1.7-3.2-1.16-4.29-1.77-2.11-1.26-1.73-3.34-1.73-3.34.09.03,2.19.96,5.99,2.44l-.04-3.58-33.84-6.13s-.27,43.43-.28,43.47c2.54-.16,5.18-.31,7.95-.45l-.52-20.03c0-.19.04-4.4,2.83-7.09,1.55-1.5,3.63-2.22,6.16-2.14,6.98.26,9.25,6.82,9.47,10.3ZM376.48,145.2l.25-41.42-4.94,3.31-.8,38.74c1.73-.13,3.57-.24,5.54-.35-.05-.08-.05-.19-.05-.28ZM415.8,143.35c25.19-1.27,51.85-2.45,67.79-3.15-24.4-3.66-49.33-11.6-67.94-18.52l.14,21.66ZM499.22,139.4v-5.38c-36.12-3.36-68.92-13.41-83.62-18.85l.04,3.86c21.15,7.93,50.76,18.03,78.51,20.71,1.7-.08,3.85-.24,5.06-.35ZM499.22,131.72V57.25h-218.43v115.39c10.52-5.87,18.67-19.55,18.75-19.7.24-.33.96-1.52.96-1.52l.28-6.68-4.61-6.77,4.07-.1-.16-1.12-1.5-.56.41-2.4,21.74-.29.53,2.37-1.9.84-.16.72,5.59-.14-3.91,4.78v6.86c2.93,3.3,7.38,6.55,14.18,5.91.21-.03.66-.11.93-.19,8.25-3.4,16.18-9.85,32.2-29.77.2-.23.46-.36.74-.44l.35-17.44-6.55-5,7.23-5.68-3.06-1.84-.43-3.49,10.35-7.92,38.81,7.18-.45,4.06-3.51,3.48,8.52,1.82v3.15l-4.67,4.68.04,5.04c14.18,5.33,47.03,15.81,83.64,19.21Z"/>
  <polygon class="cls-9" points="500.61 56.93 280 56.31 280 56.93 500.61 56.93 500.61 56.93"/>
  <polygon class="cls-7" points="500.61 56.93 280 56.31 280 56.93 500.61 56.93 500.61 56.93"/>
  <polygon class="cls-6" points="500.61 56.93 280 56.31 280 56.93 500.61 56.93 500.61 56.93"/>
  <polygon class="cls-9" points="500.61 56.94 499.65 343.89 280.75 343.69 280 342.87 280 56.93 279.62 56.93 279.62 344.78 500.61 344.78 500.61 56.94"/>
  <polygon class="cls-3" points="500.61 56.94 499.65 343.89 280.75 343.69 280 342.87 280 56.93 279.62 56.93 279.62 344.78 500.61 344.78 500.61 56.94"/>
  <polygon class="cls-4" points="500.61 56.94 499.65 343.89 280.75 343.69 280 342.87 280 56.93 279.62 56.93 279.62 344.78 500.61 344.78 500.61 56.94"/>
  <polygon class="cls-9" points="305.17 259.87 305.17 259.87 305.18 259.87 473.67 259.87 473.67 259.86 473.67 258.08 473.67 258.08 305.17 258.08 305.17 258.08 305.17 259.87"/>
  <polygon class="cls-2" points="305.17 259.87 305.17 259.87 305.18 259.87 473.67 259.87 473.67 259.86 473.67 258.08 473.67 258.08 305.17 258.08 305.17 258.08 305.17 259.87"/>
  <path class="cls-9" d="M328.38,225.52c-.24,0-.39.25-.47.72l-2.75,18.11c-.14.94-.35,2.01-1.12,2.17-.43.09-.62.09-.86.09-.27,0-.44.06-.44.2,0,.24.23.31.5.31.89,0,2.25-.09,2.75-.09s1.75.09,2.91.09c.42,0,.65-.06.65-.31,0-.14-.17-.2-.41-.2-.27,0-.65-.02-1.15-.13-.48-.12-.84-.36-.84-.9,0-.43.03-.81.09-1.28l1.43-11.06h.12c.98,2.07,2.64,5.59,2.88,6.15.33.78,2.53,5.03,3.2,6.3.43.82.72,1.39.96,1.39s.4-.26,1.04-1.54l6.05-12.59h.1l1.67,12.2c.1.76.01,1.12-.14,1.19-.19.08-.29.16-.29.29,0,.17.15.25.79.3,1.11.08,4.95.17,5.64.17.4,0,.7-.09.7-.31,0-.17-.17-.2-.43-.2-.36,0-.91-.02-1.72-.26-.84-.26-1.11-1.05-1.34-2.8l-2.55-17.16c-.07-.58-.24-.86-.49-.86s-.41.22-.59.68l-7.56,15.83-7.58-15.65c-.36-.72-.52-.86-.74-.86Z"/>
  <path class="cls-1" d="M328.38,225.52c-.24,0-.39.25-.47.72l-2.75,18.11c-.14.94-.35,2.01-1.12,2.17-.43.09-.62.09-.86.09-.27,0-.44.06-.44.2,0,.24.23.31.5.31.89,0,2.25-.09,2.75-.09s1.75.09,2.91.09c.42,0,.65-.06.65-.31,0-.14-.17-.2-.41-.2-.27,0-.65-.02-1.15-.13-.48-.12-.84-.36-.84-.9,0-.43.03-.81.09-1.28l1.43-11.06h.12c.98,2.07,2.64,5.59,2.88,6.15.33.78,2.53,5.03,3.2,6.3.43.82.72,1.39.96,1.39s.4-.26,1.04-1.54l6.05-12.59h.1l1.67,12.2c.1.76.01,1.12-.14,1.19-.19.08-.29.16-.29.29,0,.17.15.25.79.3,1.11.08,4.95.17,5.64.17.4,0,.7-.09.7-.31,0-.17-.17-.2-.43-.2-.36,0-.91-.02-1.72-.26-.84-.26-1.11-1.05-1.34-2.8l-2.55-17.16c-.07-.58-.24-.86-.49-.86s-.41.22-.59.68l-7.56,15.83-7.58-15.65c-.36-.72-.52-.86-.74-.86Z"/>
  <path class="cls-9" d="M365.57,247.49c2.16,0,4.89-.29,6.69-1.24.33-.19.36-.24.36-1v-3.04c0-1.39,0-2.5.03-3.34.03-.96.31-1.44,1.07-1.57.32-.07.52-.08.72-.08.22,0,.39-.07.39-.22,0-.23-.2-.28-.56-.28-.9,0-2.38.08-3.25.08s-2.57-.08-4.03-.08c-.38,0-.57.05-.57.28,0,.15.17.22.41.22.38,0,.85.02,1.08.08.91.19,1.16.63,1.19,1.57.05.84.05,1.89.05,3.27v2.61c0,.47-.13.83-.54,1.03-.67.3-1.63.3-2.36.3-5.85,0-9.66-4.46-9.66-10.43,0-3.42,1.01-5.49,2.56-6.8,1.95-1.6,3.97-1.72,5.5-1.72,3.13,0,5.34,1.28,6.17,2.18.74.76.89,1.65.94,2.28.03.23.09.37.29.37.22,0,.29-.14.29-.57,0-3.47.2-4.25.2-4.55,0-.19-.06-.31-.39-.33-.63-.03-1.6-.19-2.18-.3-.56-.12-2.99-.45-4.92-.45-2.32,0-4.8.2-7.44,1.82-2.53,1.52-4.83,4.62-4.83,9.06,0,7.67,6.02,10.86,12.8,10.86Z"/>
  <path class="cls-5" d="M365.57,247.49c2.16,0,4.89-.29,6.69-1.24.33-.19.36-.24.36-1v-3.04c0-1.39,0-2.5.03-3.34.03-.96.31-1.44,1.07-1.57.32-.07.52-.08.72-.08.22,0,.39-.07.39-.22,0-.23-.2-.28-.56-.28-.9,0-2.38.08-3.25.08s-2.57-.08-4.03-.08c-.38,0-.57.05-.57.28,0,.15.17.22.41.22.38,0,.85.02,1.08.08.91.19,1.16.63,1.19,1.57.05.84.05,1.89.05,3.27v2.61c0,.47-.13.83-.54,1.03-.67.3-1.63.3-2.36.3-5.85,0-9.66-4.46-9.66-10.43,0-3.42,1.01-5.49,2.56-6.8,1.95-1.6,3.97-1.72,5.5-1.72,3.13,0,5.34,1.28,6.17,2.18.74.76.89,1.65.94,2.28.03.23.09.37.29.37.22,0,.29-.14.29-.57,0-3.47.2-4.25.2-4.55,0-.19-.06-.31-.39-.33-.63-.03-1.6-.19-2.18-.3-.56-.12-2.99-.45-4.92-.45-2.32,0-4.8.2-7.44,1.82-2.53,1.52-4.83,4.62-4.83,9.06,0,7.67,6.02,10.86,12.8,10.86Z"/>
  <path class="cls-9" d="M374.43,226.38c0,.2.2.27.43.27.33,0,.8.16,1.16.36.53.3,1.2.99,1.9,2.01.97,1.44,4.69,7.55,4.9,7.98.34.81.62,1.43.62,2.93v2.28c0,.44,0,1.61-.08,2.76-.05.81-.3,1.42-.87,1.53-.24.06-.58.11-.97.11-.31,0-.44.09-.44.22,0,.23.22.29.6.29,1.02,0,2.78-.09,3.47-.09.75,0,2.49.09,4.25.09.36,0,.58-.09.58-.29,0-.12-.13-.22-.44-.22-.39,0-.99-.05-1.39-.11-.83-.11-1.08-.72-1.15-1.53-.06-1.15-.06-2.33-.06-2.76v-2.28c0-.93,0-1.79.4-2.78.5-1.19,4.39-7.71,5.3-8.82.61-.75.92-1.08,1.5-1.34.41-.23.94-.34,1.22-.34.3,0,.52-.09.52-.29,0-.15-.2-.21-.5-.21-.54,0-2.35.09-2.97.09-.8,0-1.68-.09-2.61-.09-.34,0-.47.06-.47.24s.24.23.51.29c.46.11.57.4.57.69,0,.35-.11.84-.4,1.46-.38.85-3.86,6.95-4.16,7.61-.44-.77-4.31-7.46-4.7-8.3-.21-.39-.34-.71-.34-.93s.13-.44.39-.52c.42-.1.62-.12.62-.3,0-.15-.15-.24-.44-.24-1.23,0-2.38.09-2.95.09-.92,0-3-.09-3.51-.09-.32,0-.52.09-.52.24Z"/>
  <path class="cls-11" d="M374.43,226.38c0,.2.2.27.43.27.33,0,.8.16,1.16.36.53.3,1.2.99,1.9,2.01.97,1.44,4.69,7.55,4.9,7.98.34.81.62,1.43.62,2.93v2.28c0,.44,0,1.61-.08,2.76-.05.81-.3,1.42-.87,1.53-.24.06-.58.11-.97.11-.31,0-.44.09-.44.22,0,.23.22.29.6.29,1.02,0,2.78-.09,3.47-.09.75,0,2.49.09,4.25.09.36,0,.58-.09.58-.29,0-.12-.13-.22-.44-.22-.39,0-.99-.05-1.39-.11-.83-.11-1.08-.72-1.15-1.53-.06-1.15-.06-2.33-.06-2.76v-2.28c0-.93,0-1.79.4-2.78.5-1.19,4.39-7.71,5.3-8.82.61-.75.92-1.08,1.5-1.34.41-.23.94-.34,1.22-.34.3,0,.52-.09.52-.29,0-.15-.2-.21-.5-.21-.54,0-2.35.09-2.97.09-.8,0-1.68-.09-2.61-.09-.34,0-.47.06-.47.24s.24.23.51.29c.46.11.57.4.57.69,0,.35-.11.84-.4,1.46-.38.85-3.86,6.95-4.16,7.61-.44-.77-4.31-7.46-4.7-8.3-.21-.39-.34-.71-.34-.93s.13-.44.39-.52c.42-.1.62-.12.62-.3,0-.15-.15-.24-.44-.24-1.23,0-2.38.09-2.95.09-.92,0-3-.09-3.51-.09-.32,0-.52.09-.52.24Z"/>
  <path class="cls-9" d="M418.54,236.12c0,6.37-4.43,11.37-11.47,11.37-7.96,0-11.17-5.95-11.17-10.86s3.12-10.88,11.46-10.88c6.89,0,11.19,4.03,11.19,10.37ZM414.68,237.15c0-6.22-3.58-10.07-8.13-10.07-3.2,0-6.83,1.78-6.83,8.69,0,5.77,3.19,10.35,8.52,10.35,1.93,0,6.44-.95,6.44-8.97Z"/>
  <path class="cls-12" d="M418.54,236.12c0,6.37-4.43,11.37-11.47,11.37-7.96,0-11.17-5.95-11.17-10.86s3.12-10.88,11.46-10.88c6.89,0,11.19,4.03,11.19,10.37ZM414.68,237.15c0-6.22-3.58-10.07-8.13-10.07-3.2,0-6.83,1.78-6.83,8.69,0,5.77,3.19,10.35,8.52,10.35,1.93,0,6.44-.95,6.44-8.97Z"/>
  <path class="cls-9" d="M423.13,231c0,2.25,1.05,4.18,4.12,6.56l1.27,1.02c2.31,1.77,2.72,3.07,2.72,4.44,0,1.46-1.22,3.15-3.72,3.15-1.72,0-3.35-.74-3.96-2.8-.14-.47-.26-1.06-.26-1.41,0-.24-.02-.48-.28-.48-.21,0-.29.31-.32.73-.01.44-.13,2.1-.13,3.63,0,.62.07.75.52.94,1.18.53,2.44.72,4.05.72,1.46,0,3.01-.25,4.4-1.14,2-1.3,2.61-3.21,2.61-4.82,0-2.64-1.22-4.51-4.54-7.07l-.78-.58c-2.3-1.74-2.94-2.72-2.94-3.99,0-1.68,1.25-2.86,3.29-2.86,1.8,0,2.61.83,3.03,1.36.59.72.72,1.58.72,1.83,0,.33.08.5.28.5s.3-.22.3-.83c0-2.18.11-2.98.11-3.33,0-.21-.13-.29-.37-.33-.73-.2-1.89-.48-3.69-.48-3.87,0-6.42,2.2-6.42,5.25Z"/>
  <path class="cls-13" d="M423.13,231c0,2.25,1.05,4.18,4.12,6.56l1.27,1.02c2.31,1.77,2.72,3.07,2.72,4.44,0,1.46-1.22,3.15-3.72,3.15-1.72,0-3.35-.74-3.96-2.8-.14-.47-.26-1.06-.26-1.41,0-.24-.02-.48-.28-.48-.21,0-.29.31-.32.73-.01.44-.13,2.1-.13,3.63,0,.62.07.75.52.94,1.18.53,2.44.72,4.05.72,1.46,0,3.01-.25,4.4-1.14,2-1.3,2.61-3.21,2.61-4.82,0-2.64-1.22-4.51-4.54-7.07l-.78-.58c-2.3-1.74-2.94-2.72-2.94-3.99,0-1.68,1.25-2.86,3.29-2.86,1.8,0,2.61.83,3.03,1.36.59.72.72,1.58.72,1.83,0,.33.08.5.28.5s.3-.22.3-.83c0-2.18.11-2.98.11-3.33,0-.21-.13-.29-.37-.33-.73-.2-1.89-.48-3.69-.48-3.87,0-6.42,2.2-6.42,5.25Z"/>
  <path class="cls-9" d="M439.39,225.95c-.18,0-.28.13-.33.52-.15.84-.56,3.35-.56,3.99,0,.35.03.47.23.47.16,0,.27-.09.33-.48.07-.65.56-1.66,1.48-2.16.91-.5,2.59-.59,3.99-.59h5.44c-3.71,5.85-7.81,12.12-11.72,18.22-.33.51-.41.64-.41.84s.16.27.47.27c5.61,0,10.27.15,14.9.15.5,0,.69-.23.82-.72.21-.7.55-2.49.55-3.38,0-.69-.06-.86-.26-.86-.19,0-.24.16-.3.44-.08.38-.24.9-.49,1.32-.44.85-1.53,1.54-4.35,1.54h-6.83c3.91-5.97,8.14-12.32,11.97-18.51.1-.21.2-.38.2-.54,0-.13-.19-.21-.46-.21h-8.45c-1.13,0-2.47,0-5.11-.09-.68-.03-.87-.19-1.1-.19Z"/>
  <path class="cls-14" d="M439.39,225.95c-.18,0-.28.13-.33.52-.15.84-.56,3.35-.56,3.99,0,.35.03.47.23.47.16,0,.27-.09.33-.48.07-.65.56-1.66,1.48-2.16.91-.5,2.59-.59,3.99-.59h5.44c-3.71,5.85-7.81,12.12-11.72,18.22-.33.51-.41.64-.41.84s.16.27.47.27c5.61,0,10.27.15,14.9.15.5,0,.69-.23.82-.72.21-.7.55-2.49.55-3.38,0-.69-.06-.86-.26-.86-.19,0-.24.16-.3.44-.08.38-.24.9-.49,1.32-.44.85-1.53,1.54-4.35,1.54h-6.83c3.91-5.97,8.14-12.32,11.97-18.51.1-.21.2-.38.2-.54,0-.13-.19-.21-.46-.21h-8.45c-1.13,0-2.47,0-5.11-.09-.68-.03-.87-.19-1.1-.19Z"/>
  <path class="cls-9" d="M324.64,293.42c-.67,0-3.18-.16-4.02-.16-.64,0-2.39.09-3.5.09-.37,0-.55-.09-.55-.29,0-.13.11-.21.44-.21.4,0,.75-.07.99-.11.57-.12.7-.72.81-1.53.14-1.17.14-3.36.14-5.91v-4.88c0-4.22,0-4.99-.08-5.89-.05-.94-.25-1.38-1.17-1.56-.23-.07-.7-.09-1.08-.09-.31,0-.47-.06-.47-.26,0-.18.19-.24.6-.24,1.47,0,3.22.08,3.78.08,1.36,0,2.44-.08,3.4-.08,5.01,0,5.89,2.69,5.89,4.16,0,2.28-1.29,3.64-2.82,4.85,2.28.78,5.05,2.74,5.05,6,0,2.96-2.29,6.04-7.41,6.04ZM322.28,280.88c0,.2.08.27.2.3.25.06.66.09,1.31.09.92,0,1.52-.12,2-.54.72-.57,1.14-1.58,1.14-2.95,0-1.85-1.08-4.3-3.48-4.3-.38,0-.63,0-.91.06-.19.06-.25.17-.25.47v6.86ZM322.28,289.17c0,1.84.08,2.32.98,2.67.75.31,1.38.33,2.02.33,1.26,0,3.36-.65,3.36-3.54,0-1.72-.58-4.05-2.69-5.52-.6-.4-1.22-.61-2.3-.66-.5-.05-.76-.05-1.2-.05-.1,0-.17.08-.17.2v6.57Z"/>
  <path class="cls-16" d="M324.64,293.42c-.67,0-3.18-.16-4.02-.16-.64,0-2.39.09-3.5.09-.37,0-.55-.09-.55-.29,0-.13.11-.21.44-.21.4,0,.75-.07.99-.11.57-.12.7-.72.81-1.53.14-1.17.14-3.36.14-5.91v-4.88c0-4.22,0-4.99-.08-5.89-.05-.94-.25-1.38-1.17-1.56-.23-.07-.7-.09-1.08-.09-.31,0-.47-.06-.47-.26,0-.18.19-.24.6-.24,1.47,0,3.22.08,3.78.08,1.36,0,2.44-.08,3.4-.08,5.01,0,5.89,2.69,5.89,4.16,0,2.28-1.29,3.64-2.82,4.85,2.28.78,5.05,2.74,5.05,6,0,2.96-2.29,6.04-7.41,6.04ZM322.28,280.88c0,.2.08.27.2.3.25.06.66.09,1.31.09.92,0,1.52-.12,2-.54.72-.57,1.14-1.58,1.14-2.95,0-1.85-1.08-4.3-3.48-4.3-.38,0-.63,0-.91.06-.19.06-.25.17-.25.47v6.86ZM322.28,289.17c0,1.84.08,2.32.98,2.67.75.31,1.38.33,2.02.33,1.26,0,3.36-.65,3.36-3.54,0-1.72-.58-4.05-2.69-5.52-.6-.4-1.22-.61-2.3-.66-.5-.05-.76-.05-1.2-.05-.1,0-.17.08-.17.2v6.57Z"/>
  <path class="cls-9" d="M351.76,291.74c2.34-2.02,2.63-5.27,2.63-8.37v-2.95c0-4.22,0-4.99.06-5.89.06-.97.27-1.44,1.04-1.56.32-.07.49-.09.79-.09.34,0,.49-.06.49-.26,0-.18-.2-.24-.59-.24-1.07,0-2.82.08-3.17.08-.03,0-1.76-.08-3.18-.08-.38,0-.58.06-.58.24,0,.2.17.26.47.26s.78.02,1,.09c.91.18,1.14.62,1.2,1.56.06.9.06,1.68.06,5.89v3.45c0,2.87-.08,5.37-1.62,6.88-1.11,1.12-2.61,1.5-3.82,1.5-.94,0-2.23-.1-3.48-1.13-1.36-1.11-2.16-2.8-2.16-6.82v-3.89c0-4.22,0-4.99.06-5.89.06-.97.27-1.44,1.04-1.56.31-.07.49-.09.79-.09.26,0,.44-.06.44-.26,0-.18-.2-.24-.61-.24-1.01,0-2.75.08-3.42.08-.82,0-2.57-.08-4.04-.08-.41,0-.61.06-.61.24,0,.2.16.26.47.26.4,0,.85.02,1.08.09.91.18,1.15.62,1.18,1.56.07.9.07,1.68.07,5.89v4.05c0,4.02,1.06,6.07,2.48,7.35,2.02,1.83,4.68,1.92,6.16,1.92,1.8,0,3.8-.32,5.76-2Z"/>
  <path class="cls-23" d="M351.76,291.74c2.34-2.02,2.63-5.27,2.63-8.37v-2.95c0-4.22,0-4.99.06-5.89.06-.97.27-1.44,1.04-1.56.32-.07.49-.09.79-.09.34,0,.49-.06.49-.26,0-.18-.2-.24-.59-.24-1.07,0-2.82.08-3.17.08-.03,0-1.76-.08-3.18-.08-.38,0-.58.06-.58.24,0,.2.17.26.47.26s.78.02,1,.09c.91.18,1.14.62,1.2,1.56.06.9.06,1.68.06,5.89v3.45c0,2.87-.08,5.37-1.62,6.88-1.11,1.12-2.61,1.5-3.82,1.5-.94,0-2.23-.1-3.48-1.13-1.36-1.11-2.16-2.8-2.16-6.82v-3.89c0-4.22,0-4.99.06-5.89.06-.97.27-1.44,1.04-1.56.31-.07.49-.09.79-.09.26,0,.44-.06.44-.26,0-.18-.2-.24-.61-.24-1.01,0-2.75.08-3.42.08-.82,0-2.57-.08-4.04-.08-.41,0-.61.06-.61.24,0,.2.16.26.47.26.4,0,.85.02,1.08.09.91.18,1.15.62,1.18,1.56.07.9.07,1.68.07,5.89v4.05c0,4.02,1.06,6.07,2.48,7.35,2.02,1.83,4.68,1.92,6.16,1.92,1.8,0,3.8-.32,5.76-2Z"/>
  <path class="cls-9" d="M366.08,284.79c2.31,1.79,2.72,3.08,2.72,4.45,0,1.46-1.21,3.15-3.72,3.15-1.71,0-3.33-.75-3.96-2.8-.15-.47-.25-1.06-.25-1.42,0-.21-.03-.47-.28-.47-.23,0-.32.3-.33.72-.02.45-.15,2.11-.15,3.62,0,.61.09.76.53.97,1.19.52,2.44.72,4.05.72,1.46,0,3.02-.27,4.42-1.15,1.98-1.3,2.59-3.21,2.59-4.83,0-2.63-1.2-4.48-4.54-7.07l-.76-.59c-2.31-1.75-2.95-2.71-2.95-4,0-1.66,1.24-2.84,3.29-2.84,1.79,0,2.6.84,3.03,1.35.58.72.73,1.59.73,1.84,0,.33.06.5.26.5.22,0,.3-.23.3-.85,0-2.17.11-2.96.11-3.33,0-.18-.14-.27-.38-.32-.72-.19-1.89-.47-3.69-.47-3.86,0-6.4,2.18-6.4,5.24,0,2.25,1.05,4.19,4.11,6.57l1.27,1Z"/>
  <path class="cls-24" d="M366.08,284.79c2.31,1.79,2.72,3.08,2.72,4.45,0,1.46-1.21,3.15-3.72,3.15-1.71,0-3.33-.75-3.96-2.8-.15-.47-.25-1.06-.25-1.42,0-.21-.03-.47-.28-.47-.23,0-.32.3-.33.72-.02.45-.15,2.11-.15,3.62,0,.61.09.76.53.97,1.19.52,2.44.72,4.05.72,1.46,0,3.02-.27,4.42-1.15,1.98-1.3,2.59-3.21,2.59-4.83,0-2.63-1.2-4.48-4.54-7.07l-.76-.59c-2.31-1.75-2.95-2.71-2.95-4,0-1.66,1.24-2.84,3.29-2.84,1.79,0,2.6.84,3.03,1.35.58.72.73,1.59.73,1.84,0,.33.06.5.26.5.22,0,.3-.23.3-.85,0-2.17.11-2.96.11-3.33,0-.18-.14-.27-.38-.32-.72-.19-1.89-.47-3.69-.47-3.86,0-6.4,2.18-6.4,5.24,0,2.25,1.05,4.19,4.11,6.57l1.27,1Z"/>
  <path class="cls-9" d="M378.31,285.29c0,2.68,0,4.88-.15,6.03-.08.82-.24,1.28-.81,1.4-.24.04-.57.11-.99.11-.32,0-.46.08-.46.21,0,.2.2.29.57.29,1.09,0,2.84-.09,3.49-.09.75,0,2.49.09,4.33.09.29,0,.53-.09.53-.29,0-.13-.16-.21-.44-.21-.42,0-1.03-.07-1.42-.11-.84-.12-1.04-.61-1.12-1.38-.11-1.17-.11-3.37-.11-6.05v-4.88c0-4.22,0-4.99.06-5.89.05-.97.28-1.44,1.03-1.56.33-.07.56-.09.84-.09s.43-.06.43-.28c0-.16-.23-.22-.59-.22-1.05,0-2.68.08-3.38.08-.81,0-2.55-.08-3.6-.08-.44,0-.66.06-.66.22,0,.22.18.28.45.28.32,0,.68.02.99.11.62.13.88.6.93,1.54.07.9.07,1.68.07,5.89v4.88Z"/>
  <path class="cls-25" d="M378.31,285.29c0,2.68,0,4.88-.15,6.03-.08.82-.24,1.28-.81,1.4-.24.04-.57.11-.99.11-.32,0-.46.08-.46.21,0,.2.2.29.57.29,1.09,0,2.84-.09,3.49-.09.75,0,2.49.09,4.33.09.29,0,.53-.09.53-.29,0-.13-.16-.21-.44-.21-.42,0-1.03-.07-1.42-.11-.84-.12-1.04-.61-1.12-1.38-.11-1.17-.11-3.37-.11-6.05v-4.88c0-4.22,0-4.99.06-5.89.05-.97.28-1.44,1.03-1.56.33-.07.56-.09.84-.09s.43-.06.43-.28c0-.16-.23-.22-.59-.22-1.05,0-2.68.08-3.38.08-.81,0-2.55-.08-3.6-.08-.44,0-.66.06-.66.22,0,.22.18.28.45.28.32,0,.68.02.99.11.62.13.88.6.93,1.54.07.9.07,1.68.07,5.89v4.88Z"/>
  <path class="cls-9" d="M394.79,292.84c-.45,0-.97-.03-1.44-.19-.57-.19-.93-.91-.98-3.09l-.29-11.65h.08c.49.52,3.58,3.98,6.6,6.99,2.88,2.85,6.43,6.5,8.18,8.15.3.3.63.62.94.62.25,0,.37-.26.37-.87l.29-17.51c.04-1.54.24-2.12,1.02-2.34.35-.09.56-.09.85-.09.33,0,.48-.1.48-.26,0-.21-.26-.24-.6-.24-1.38,0-2.42.08-2.73.08-.58,0-1.92-.08-3.36-.08-.42,0-.73.03-.73.24,0,.16.13.26.44.26.39,0,1.06,0,1.47.16.67.28.93.81.95,2.5l.27,12.45h-.13c-.48-.44-4.23-4.43-6.09-6.32-4.06-4.02-8.26-8.55-8.61-8.9-.47-.5-.7-.87-1.02-.87-.28,0-.37.39-.37.95l-.25,16.42c-.03,2.42-.14,3.22-.86,3.44-.36.11-.88.14-1.25.14-.27,0-.44.05-.44.21,0,.25.26.29.62.29,1.44,0,2.72-.09,2.98-.09.54,0,1.63.09,3.43.09.4,0,.64-.07.64-.29,0-.16-.16-.21-.47-.21Z"/>
  <path class="cls-26" d="M394.79,292.84c-.45,0-.97-.03-1.44-.19-.57-.19-.93-.91-.98-3.09l-.29-11.65h.08c.49.52,3.58,3.98,6.6,6.99,2.88,2.85,6.43,6.5,8.18,8.15.3.3.63.62.94.62.25,0,.37-.26.37-.87l.29-17.51c.04-1.54.24-2.12,1.02-2.34.35-.09.56-.09.85-.09.33,0,.48-.1.48-.26,0-.21-.26-.24-.6-.24-1.38,0-2.42.08-2.73.08-.58,0-1.92-.08-3.36-.08-.42,0-.73.03-.73.24,0,.16.13.26.44.26.39,0,1.06,0,1.47.16.67.28.93.81.95,2.5l.27,12.45h-.13c-.48-.44-4.23-4.43-6.09-6.32-4.06-4.02-8.26-8.55-8.61-8.9-.47-.5-.7-.87-1.02-.87-.28,0-.37.39-.37.95l-.25,16.42c-.03,2.42-.14,3.22-.86,3.44-.36.11-.88.14-1.25.14-.27,0-.44.05-.44.21,0,.25.26.29.62.29,1.44,0,2.72-.09,2.98-.09.54,0,1.63.09,3.43.09.4,0,.64-.07.64-.29,0-.16-.16-.21-.47-.21Z"/>
  <path class="cls-9" d="M417.07,285.29c0,2.55,0,4.74-.13,5.91-.11.81-.25,1.41-.8,1.53-.27.04-.6.11-1.01.11-.33,0-.43.08-.43.21,0,.2.19.29.53.29,1.12,0,2.86-.09,3.51-.09,1.63,0,3.49.16,7.68.16,1.05,0,1.3,0,1.5-.72.13-.55.35-2.44.35-3.08,0-.27,0-.49-.22-.49-.18,0-.25.11-.29.41-.2,1.15-.53,1.72-1.27,2.06-.71.33-1.87.33-2.58.33-2.84,0-3.28-.41-3.35-2.33-.02-.81,0-3.36,0-4.3v-2.19c0-.16.04-.28.17-.28.67,0,3.42.03,3.95.08,1.02.12,1.41.52,1.55,1.08.08.35.08.73.12,1,0,.14.06.23.24.23.26,0,.26-.29.26-.5s.04-1.32.11-1.86c.08-1.42.21-1.87.21-2.04s-.07-.21-.18-.21c-.14,0-.25.13-.46.36-.23.28-.66.36-1.32.41-.64.06-3.83.06-4.46.06-.13,0-.17-.11-.17-.32v-7.01c0-.19.07-.26.17-.26.57,0,3.5.04,3.96.09,1.38.17,1.67.51,1.86,1,.14.33.17.82.17,1.01,0,.25.04.38.25.38.18,0,.25-.16.28-.3.04-.32.1-1.55.15-1.84.07-1.26.22-1.6.22-1.79,0-.14-.02-.25-.17-.25s-.3.08-.46.11c-.21.05-.65.11-1.19.17-.51.02-6.04.02-6.93.02-.77,0-2.51-.08-3.98-.08-.42,0-.61.06-.61.24,0,.2.16.26.48.26.38,0,.85.02,1.06.09.93.18,1.14.62,1.2,1.56.06.9.06,1.68.06,5.89v4.88Z"/>
  <path class="cls-15" d="M417.07,285.29c0,2.55,0,4.74-.13,5.91-.11.81-.25,1.41-.8,1.53-.27.04-.6.11-1.01.11-.33,0-.43.08-.43.21,0,.2.19.29.53.29,1.12,0,2.86-.09,3.51-.09,1.63,0,3.49.16,7.68.16,1.05,0,1.3,0,1.5-.72.13-.55.35-2.44.35-3.08,0-.27,0-.49-.22-.49-.18,0-.25.11-.29.41-.2,1.15-.53,1.72-1.27,2.06-.71.33-1.87.33-2.58.33-2.84,0-3.28-.41-3.35-2.33-.02-.81,0-3.36,0-4.3v-2.19c0-.16.04-.28.17-.28.67,0,3.42.03,3.95.08,1.02.12,1.41.52,1.55,1.08.08.35.08.73.12,1,0,.14.06.23.24.23.26,0,.26-.29.26-.5s.04-1.32.11-1.86c.08-1.42.21-1.87.21-2.04s-.07-.21-.18-.21c-.14,0-.25.13-.46.36-.23.28-.66.36-1.32.41-.64.06-3.83.06-4.46.06-.13,0-.17-.11-.17-.32v-7.01c0-.19.07-.26.17-.26.57,0,3.5.04,3.96.09,1.38.17,1.67.51,1.86,1,.14.33.17.82.17,1.01,0,.25.04.38.25.38.18,0,.25-.16.28-.3.04-.32.1-1.55.15-1.84.07-1.26.22-1.6.22-1.79,0-.14-.02-.25-.17-.25s-.3.08-.46.11c-.21.05-.65.11-1.19.17-.51.02-6.04.02-6.93.02-.77,0-2.51-.08-3.98-.08-.42,0-.61.06-.61.24,0,.2.16.26.48.26.38,0,.85.02,1.06.09.93.18,1.14.62,1.2,1.56.06.9.06,1.68.06,5.89v4.88Z"/>
  <path class="cls-9" d="M444.13,287.76c0-2.63-1.22-4.48-4.54-7.07l-.78-.59c-2.31-1.75-2.95-2.71-2.95-4,0-1.66,1.25-2.84,3.31-2.84,1.78,0,2.61.84,3,1.35.58.72.73,1.59.73,1.84,0,.33.08.5.29.5s.31-.23.31-.85c0-2.17.1-2.96.1-3.33,0-.18-.14-.27-.38-.32-.72-.19-1.89-.47-3.69-.47-3.87,0-6.4,2.18-6.4,5.24,0,2.25,1.05,4.19,4.08,6.57l1.3,1c2.3,1.79,2.71,3.08,2.71,4.45,0,1.46-1.22,3.15-3.7,3.15-1.74,0-3.37-.75-3.98-2.8-.14-.47-.24-1.06-.24-1.42,0-.21-.03-.47-.29-.47-.21,0-.31.3-.33.72-.02.45-.15,2.11-.15,3.62,0,.61.08.76.52.97,1.21.52,2.45.72,4.07.72,1.48,0,3.03-.27,4.41-1.15,2-1.3,2.61-3.21,2.61-4.83Z"/>
  <path class="cls-18" d="M444.13,287.76c0-2.63-1.22-4.48-4.54-7.07l-.78-.59c-2.31-1.75-2.95-2.71-2.95-4,0-1.66,1.25-2.84,3.31-2.84,1.78,0,2.61.84,3,1.35.58.72.73,1.59.73,1.84,0,.33.08.5.29.5s.31-.23.31-.85c0-2.17.1-2.96.1-3.33,0-.18-.14-.27-.38-.32-.72-.19-1.89-.47-3.69-.47-3.87,0-6.4,2.18-6.4,5.24,0,2.25,1.05,4.19,4.08,6.57l1.3,1c2.3,1.79,2.71,3.08,2.71,4.45,0,1.46-1.22,3.15-3.7,3.15-1.74,0-3.37-.75-3.98-2.8-.14-.47-.24-1.06-.24-1.42,0-.21-.03-.47-.29-.47-.21,0-.31.3-.33.72-.02.45-.15,2.11-.15,3.62,0,.61.08.76.52.97,1.21.52,2.45.72,4.07.72,1.48,0,3.03-.27,4.41-1.15,2-1.3,2.61-3.21,2.61-4.83Z"/>
  <path class="cls-9" d="M459.35,272.45c-.72-.19-1.89-.47-3.69-.47-3.85,0-6.4,2.18-6.4,5.24,0,2.25,1.03,4.19,4.1,6.57l1.28,1c2.3,1.79,2.71,3.08,2.71,4.45,0,1.46-1.22,3.15-3.72,3.15-1.71,0-3.35-.75-3.96-2.8-.15-.47-.25-1.06-.25-1.42,0-.21-.04-.47-.28-.47-.22,0-.29.3-.32.72-.03.45-.15,2.11-.15,3.62,0,.61.07.76.54.97,1.17.52,2.42.72,4.04.72,1.47,0,3.03-.27,4.42-1.15,1.98-1.3,2.6-3.21,2.6-4.83,0-2.63-1.22-4.48-4.55-7.07l-.78-.59c-2.3-1.75-2.94-2.71-2.94-4,0-1.66,1.25-2.84,3.29-2.84,1.82,0,2.62.84,3.04,1.35.57.72.72,1.59.72,1.84,0,.33.08.5.28.5.22,0,.3-.23.3-.85,0-2.17.11-2.96.11-3.33,0-.18-.14-.27-.38-.32Z"/>
  <path class="cls-17" d="M459.35,272.45c-.72-.19-1.89-.47-3.69-.47-3.85,0-6.4,2.18-6.4,5.24,0,2.25,1.03,4.19,4.1,6.57l1.28,1c2.3,1.79,2.71,3.08,2.71,4.45,0,1.46-1.22,3.15-3.72,3.15-1.71,0-3.35-.75-3.96-2.8-.15-.47-.25-1.06-.25-1.42,0-.21-.04-.47-.28-.47-.22,0-.29.3-.32.72-.03.45-.15,2.11-.15,3.62,0,.61.07.76.54.97,1.17.52,2.42.72,4.04.72,1.47,0,3.03-.27,4.42-1.15,1.98-1.3,2.6-3.21,2.6-4.83,0-2.63-1.22-4.48-4.55-7.07l-.78-.59c-2.3-1.75-2.94-2.71-2.94-4,0-1.66,1.25-2.84,3.29-2.84,1.82,0,2.62.84,3.04,1.35.57.72.72,1.59.72,1.84,0,.33.08.5.28.5.22,0,.3-.23.3-.85,0-2.17.11-2.96.11-3.33,0-.18-.14-.27-.38-.32Z"/>
  <path class="cls-9" d="M310.6,299.03c.39,0,.85.02,1.08.08.91.2,1.12.63,1.18,1.58.05.89.05,1.68.05,5.88v4.88c0,2.56,0,4.74-.13,5.91-.13.81-.26,1.43-.81,1.52-.25.07-.58.13-.99.13-.32,0-.44.09-.44.22,0,.19.19.27.53.27,1.11,0,2.86-.08,3.5-.08.79,0,2.54.08,4.32.08.33,0,.57-.08.57-.27,0-.13-.15-.22-.46-.22-.41,0-1.03-.06-1.4-.13-.85-.09-1.01-.71-1.09-1.49-.13-1.2-.13-3.38-.13-5.94v-2.44c0-.13.08-.16.15-.16h10.61c.09,0,.17.06.17.16v2.44c0,2.56,0,4.74-.16,5.91-.11.81-.24,1.43-.81,1.52-.22.07-.57.13-.98.13-.33,0-.47.09-.47.22,0,.19.22.27.6.27,1.08,0,2.84-.08,3.48-.08.77,0,2.51.08,4.31.08.34,0,.55-.08.55-.27,0-.13-.15-.22-.44-.22-.41,0-1.04-.06-1.42-.13-.84-.09-1-.71-1.08-1.49-.14-1.2-.14-3.38-.14-5.94v-4.88c0-4.2,0-4.99.05-5.88.06-.97.29-1.43,1.03-1.58.34-.06.58-.08.82-.08.32,0,.49-.07.49-.25s-.2-.24-.58-.24c-1.09,0-2.83.08-3.51.08-.74,0-2.5-.08-3.99-.08-.38,0-.58.05-.58.24s.17.25.46.25c.4,0,.87.02,1.09.08.92.2,1.13.63,1.19,1.58.07.89.07,1.68.07,5.88v.59c0,.15-.08.19-.17.19h-10.61c-.07,0-.15-.04-.15-.19v-.59c0-4.2,0-4.99.05-5.88.05-.97.28-1.43,1.02-1.58.35-.06.59-.08.81-.08.34,0,.49-.07.49-.25s-.18-.24-.57-.24c-1.07,0-2.82.08-3.5.08-.75,0-2.51-.08-3.99-.08-.39,0-.59.05-.59.24s.16.25.49.25Z"/>
  <path class="cls-19" d="M310.6,299.03c.39,0,.85.02,1.08.08.91.2,1.12.63,1.18,1.58.05.89.05,1.68.05,5.88v4.88c0,2.56,0,4.74-.13,5.91-.13.81-.26,1.43-.81,1.52-.25.07-.58.13-.99.13-.32,0-.44.09-.44.22,0,.19.19.27.53.27,1.11,0,2.86-.08,3.5-.08.79,0,2.54.08,4.32.08.33,0,.57-.08.57-.27,0-.13-.15-.22-.46-.22-.41,0-1.03-.06-1.4-.13-.85-.09-1.01-.71-1.09-1.49-.13-1.2-.13-3.38-.13-5.94v-2.44c0-.13.08-.16.15-.16h10.61c.09,0,.17.06.17.16v2.44c0,2.56,0,4.74-.16,5.91-.11.81-.24,1.43-.81,1.52-.22.07-.57.13-.98.13-.33,0-.47.09-.47.22,0,.19.22.27.6.27,1.08,0,2.84-.08,3.48-.08.77,0,2.51.08,4.31.08.34,0,.55-.08.55-.27,0-.13-.15-.22-.44-.22-.41,0-1.04-.06-1.42-.13-.84-.09-1-.71-1.08-1.49-.14-1.2-.14-3.38-.14-5.94v-4.88c0-4.2,0-4.99.05-5.88.06-.97.29-1.43,1.03-1.58.34-.06.58-.08.82-.08.32,0,.49-.07.49-.25s-.2-.24-.58-.24c-1.09,0-2.83.08-3.51.08-.74,0-2.5-.08-3.99-.08-.38,0-.58.05-.58.24s.17.25.46.25c.4,0,.87.02,1.09.08.92.2,1.13.63,1.19,1.58.07.89.07,1.68.07,5.88v.59c0,.15-.08.19-.17.19h-10.61c-.07,0-.15-.04-.15-.19v-.59c0-4.2,0-4.99.05-5.88.05-.97.28-1.43,1.02-1.58.35-.06.59-.08.81-.08.34,0,.49-.07.49-.25s-.18-.24-.57-.24c-1.07,0-2.82.08-3.5.08-.75,0-2.51-.08-3.99-.08-.39,0-.59.05-.59.24s.16.25.49.25Z"/>
  <path class="cls-9" d="M355.69,309.53v-2.97c0-4.2,0-4.99.06-5.88.05-.97.28-1.43,1.02-1.58.34-.06.51-.08.81-.08.34,0,.51-.07.51-.25s-.21-.24-.59-.24c-1.08,0-2.83.08-3.17.08-.01,0-1.77-.08-3.18-.08-.38,0-.58.05-.58.24s.17.25.47.25.78.02,1,.08c.92.2,1.15.63,1.21,1.58.04.89.04,1.68.04,5.88v3.48c0,2.85-.08,5.35-1.61,6.88-1.1,1.11-2.6,1.49-3.82,1.49-.94,0-2.23-.1-3.48-1.12-1.35-1.12-2.16-2.8-2.16-6.83v-3.89c0-4.2,0-4.99.06-5.88.06-.97.29-1.43,1.03-1.58.32-.06.49-.08.81-.08.27,0,.44-.07.44-.25s-.19-.24-.61-.24c-1,0-2.75.08-3.4.08-.82,0-2.59-.08-4.07-.08-.41,0-.6.05-.6.24s.15.25.47.25c.38,0,.86.02,1.07.08.92.2,1.14.63,1.2,1.58.05.89.05,1.68.05,5.88v4.06c0,4.02,1.04,6.07,2.48,7.34,2.01,1.82,4.68,1.91,6.14,1.91,1.81,0,3.81-.3,5.77-2,2.35-1.99,2.64-5.27,2.64-8.35Z"/>
  <path class="cls-20" d="M355.69,309.53v-2.97c0-4.2,0-4.99.06-5.88.05-.97.28-1.43,1.02-1.58.34-.06.51-.08.81-.08.34,0,.51-.07.51-.25s-.21-.24-.59-.24c-1.08,0-2.83.08-3.17.08-.01,0-1.77-.08-3.18-.08-.38,0-.58.05-.58.24s.17.25.47.25.78.02,1,.08c.92.2,1.15.63,1.21,1.58.04.89.04,1.68.04,5.88v3.48c0,2.85-.08,5.35-1.61,6.88-1.1,1.11-2.6,1.49-3.82,1.49-.94,0-2.23-.1-3.48-1.12-1.35-1.12-2.16-2.8-2.16-6.83v-3.89c0-4.2,0-4.99.06-5.88.06-.97.29-1.43,1.03-1.58.32-.06.49-.08.81-.08.27,0,.44-.07.44-.25s-.19-.24-.61-.24c-1,0-2.75.08-3.4.08-.82,0-2.59-.08-4.07-.08-.41,0-.6.05-.6.24s.15.25.47.25c.38,0,.86.02,1.07.08.92.2,1.14.63,1.2,1.58.05.89.05,1.68.05,5.88v4.06c0,4.02,1.04,6.07,2.48,7.34,2.01,1.82,4.68,1.91,6.14,1.91,1.81,0,3.81-.3,5.77-2,2.35-1.99,2.64-5.27,2.64-8.35Z"/>
  <path class="cls-9" d="M379.58,319.22c.32.3.65.6.94.6.27,0,.37-.25.37-.86l.32-17.51c.02-1.56.24-2.13,1.02-2.35.33-.08.55-.08.83-.08.33,0,.5-.09.5-.25,0-.22-.27-.24-.64-.24-1.35,0-2.41.08-2.71.08-.58,0-1.91-.08-3.34-.08-.43,0-.73.02-.73.24,0,.17.12.25.44.25.39,0,1.06,0,1.47.17.67.27.93.81.94,2.5l.27,12.45h-.13c-.47-.43-4.21-4.44-6.09-6.33-4.06-4.01-8.28-8.54-8.61-8.89-.46-.51-.73-.87-1.03-.87-.27,0-.35.39-.35.94l-.26,16.42c-.02,2.42-.13,3.23-.85,3.45-.39.11-.89.14-1.25.14-.28,0-.43.05-.43.22,0,.25.23.27.6.27,1.43,0,2.74-.08,3-.08.52,0,1.63.08,3.43.08.4,0,.64-.05.64-.27,0-.17-.17-.22-.48-.22-.43,0-.97-.03-1.43-.2-.55-.19-.92-.92-.97-3.07l-.31-11.66h.08c.5.53,3.58,4,6.6,6.98,2.88,2.86,6.43,6.5,8.17,8.17Z"/>
  <path class="cls-28" d="M379.58,319.22c.32.3.65.6.94.6.27,0,.37-.25.37-.86l.32-17.51c.02-1.56.24-2.13,1.02-2.35.33-.08.55-.08.83-.08.33,0,.5-.09.5-.25,0-.22-.27-.24-.64-.24-1.35,0-2.41.08-2.71.08-.58,0-1.91-.08-3.34-.08-.43,0-.73.02-.73.24,0,.17.12.25.44.25.39,0,1.06,0,1.47.17.67.27.93.81.94,2.5l.27,12.45h-.13c-.47-.43-4.21-4.44-6.09-6.33-4.06-4.01-8.28-8.54-8.61-8.89-.46-.51-.73-.87-1.03-.87-.27,0-.35.39-.35.94l-.26,16.42c-.02,2.42-.13,3.23-.85,3.45-.39.11-.89.14-1.25.14-.28,0-.43.05-.43.22,0,.25.23.27.6.27,1.43,0,2.74-.08,3-.08.52,0,1.63.08,3.43.08.4,0,.64-.05.64-.27,0-.17-.17-.22-.48-.22-.43,0-.97-.03-1.43-.2-.55-.19-.92-.92-.97-3.07l-.31-11.66h.08c.5.53,3.58,4,6.6,6.98,2.88,2.86,6.43,6.5,8.17,8.17Z"/>
  <path class="cls-9" d="M406.19,318.64c.32-.21.36-.25.36-1.03v-3.03c0-1.4,0-2.49.04-3.34.01-.96.3-1.43,1.04-1.57.34-.06.52-.1.77-.1.2,0,.35-.05.35-.21,0-.23-.2-.29-.55-.29-.91,0-2.41.09-3.23.09s-2.59-.09-4.04-.09c-.39,0-.57.06-.57.29,0,.16.16.21.4.21.39,0,.87.03,1.09.1.9.19,1.15.64,1.19,1.57.02.85.02,1.89.02,3.28v2.61c0,.47-.12.83-.53,1.03-.65.3-1.63.3-2.37.3-5.83,0-9.62-4.46-9.62-10.42,0-3.4.97-5.49,2.53-6.8,1.95-1.61,3.97-1.71,5.5-1.71,3.13,0,5.34,1.28,6.17,2.16.73.78.87,1.66.95,2.29.04.23.09.37.29.37s.29-.15.29-.59c0-3.47.19-4.24.19-4.55,0-.19-.05-.29-.39-.32-.62-.03-1.59-.2-2.18-.3-.56-.11-3-.45-4.92-.45-2.33,0-4.8.19-7.47,1.81-2.51,1.52-4.81,4.63-4.81,9.06,0,7.66,6.02,10.87,12.81,10.87,2.17,0,4.9-.3,6.69-1.23Z"/>
  <path class="cls-22" d="M406.19,318.64c.32-.21.36-.25.36-1.03v-3.03c0-1.4,0-2.49.04-3.34.01-.96.3-1.43,1.04-1.57.34-.06.52-.1.77-.1.2,0,.35-.05.35-.21,0-.23-.2-.29-.55-.29-.91,0-2.41.09-3.23.09s-2.59-.09-4.04-.09c-.39,0-.57.06-.57.29,0,.16.16.21.4.21.39,0,.87.03,1.09.1.9.19,1.15.64,1.19,1.57.02.85.02,1.89.02,3.28v2.61c0,.47-.12.83-.53,1.03-.65.3-1.63.3-2.37.3-5.83,0-9.62-4.46-9.62-10.42,0-3.4.97-5.49,2.53-6.8,1.95-1.61,3.97-1.71,5.5-1.71,3.13,0,5.34,1.28,6.17,2.16.73.78.87,1.66.95,2.29.04.23.09.37.29.37s.29-.15.29-.59c0-3.47.19-4.24.19-4.55,0-.19-.05-.29-.39-.32-.62-.03-1.59-.2-2.18-.3-.56-.11-3-.45-4.92-.45-2.33,0-4.8.19-7.47,1.81-2.51,1.52-4.81,4.63-4.81,9.06,0,7.66,6.02,10.87,12.81,10.87,2.17,0,4.9-.3,6.69-1.23Z"/>
  <path class="cls-9" d="M419.92,298.81c.68,1.53,5.11,12.83,6.91,17.06,1.05,2.49,1.83,2.88,2.44,3.01.41.1.84.13,1.16.13.21,0,.35.03.35.22,0,.22-.25.27-1.27.27s-3.02,0-5.24-.05c-.52-.03-.84-.03-.84-.22,0-.17.11-.22.39-.25.19-.06.39-.31.25-.65l-2.21-5.88c-.06-.13-.15-.19-.29-.19h-6.19c-.14,0-.2.06-.24.21l-1.51,3.98c-.27.68-.41,1.36-.41,1.69,0,.5.25.86,1.1.86h.44c.32,0,.4.05.4.22,0,.22-.16.27-.46.27-.89,0-2.09-.08-2.94-.08-.32,0-1.83.08-3.28.08-.35,0-.52-.05-.52-.27,0-.17.11-.22.33-.22.23,0,.64-.03.88-.06,1.26-.16,1.79-1.11,2.34-2.49l6.97-17.42c.32-.79.5-1.11.77-1.11s.41.24.68.89ZM421.18,310.72l-2.51-6.86c0-.12-.04-.24-.13-.24-.07,0-.13.12-.17.24l-2.55,6.82c-.05.12,0,.2.1.2h5.11c.13,0,.17-.08.13-.16Z"/>
  <path class="cls-29" d="M419.92,298.81c.68,1.53,5.11,12.83,6.91,17.06,1.05,2.49,1.83,2.88,2.44,3.01.41.1.84.13,1.16.13.21,0,.35.03.35.22,0,.22-.25.27-1.27.27s-3.02,0-5.24-.05c-.52-.03-.84-.03-.84-.22,0-.17.11-.22.39-.25.19-.06.39-.31.25-.65l-2.21-5.88c-.06-.13-.15-.19-.29-.19h-6.19c-.14,0-.2.06-.24.21l-1.51,3.98c-.27.68-.41,1.36-.41,1.69,0,.5.25.86,1.1.86h.44c.32,0,.4.05.4.22,0,.22-.16.27-.46.27-.89,0-2.09-.08-2.94-.08-.32,0-1.83.08-3.28.08-.35,0-.52-.05-.52-.27,0-.17.11-.22.33-.22.23,0,.64-.03.88-.06,1.26-.16,1.79-1.11,2.34-2.49l6.97-17.42c.32-.79.5-1.11.77-1.11s.41.24.68.89ZM421.18,310.72l-2.51-6.86c0-.12-.04-.24-.13-.24-.07,0-.13.12-.17.24l-2.55,6.82c-.05.12,0,.2.1.2h5.11c.13,0,.17-.08.13-.16Z"/>
  <path class="cls-9" d="M446.63,318.97c-1.18-.65-2.25-1.95-3.79-4.09-1.11-1.52-2.39-3.41-2.76-3.83-.13-.16-.29-.18-.49-.18l-2.42-.05c-.12,0-.22.05-.22.22v.4c0,2.56,0,4.75.14,5.92.08.81.25,1.43,1.09,1.52.42.07,1.01.13,1.36.13.2,0,.31.09.31.22,0,.19-.18.27-.54.27-1.6,0-3.66-.08-4.07-.08-.53,0-2.27.08-3.39.08-.35,0-.55-.08-.55-.27,0-.13.11-.22.44-.22.43,0,.75-.06,1-.13.57-.09.69-.71.81-1.52.15-1.17.15-3.35.15-5.91v-4.88c0-4.2,0-4.99-.07-5.88-.05-.94-.26-1.38-1.18-1.58-.23-.06-.7-.08-1.08-.08-.32,0-.48-.07-.48-.25s.19-.24.61-.24c1.48,0,3.21.08,3.8.08.92,0,3.04-.08,3.89-.08,1.76,0,3.61.16,5.11,1.18.78.53,1.89,1.95,1.89,3.8,0,2.06-.87,3.93-3.67,6.22,2.47,3.1,4.38,5.58,6.04,7.29,1.55,1.62,2.68,1.81,3.1,1.89.3.06.54.09.78.09.22,0,.32.09.32.22,0,.22-.2.27-.53.27h-2.64c-1.55,0-2.24-.13-2.97-.52ZM441.27,309.07c.84-.62,1.64-1.9,1.64-4.17,0-3.93-2.58-5.06-4.25-5.06-.68,0-1.17,0-1.47.11-.17.06-.24.16-.24.39v8.42c0,.31.07.42.24.5.59.2,1.43.27,2.12.27,1.11,0,1.48-.1,1.96-.47Z"/>
  <path class="cls-27" d="M446.63,318.97c-1.18-.65-2.25-1.95-3.79-4.09-1.11-1.52-2.39-3.41-2.76-3.83-.13-.16-.29-.18-.49-.18l-2.42-.05c-.12,0-.22.05-.22.22v.4c0,2.56,0,4.75.14,5.92.08.81.25,1.43,1.09,1.52.42.07,1.01.13,1.36.13.2,0,.31.09.31.22,0,.19-.18.27-.54.27-1.6,0-3.66-.08-4.07-.08-.53,0-2.27.08-3.39.08-.35,0-.55-.08-.55-.27,0-.13.11-.22.44-.22.43,0,.75-.06,1-.13.57-.09.69-.71.81-1.52.15-1.17.15-3.35.15-5.91v-4.88c0-4.2,0-4.99-.07-5.88-.05-.94-.26-1.38-1.18-1.58-.23-.06-.7-.08-1.08-.08-.32,0-.48-.07-.48-.25s.19-.24.61-.24c1.48,0,3.21.08,3.8.08.92,0,3.04-.08,3.89-.08,1.76,0,3.61.16,5.11,1.18.78.53,1.89,1.95,1.89,3.8,0,2.06-.87,3.93-3.67,6.22,2.47,3.1,4.38,5.58,6.04,7.29,1.55,1.62,2.68,1.81,3.1,1.89.3.06.54.09.78.09.22,0,.32.09.32.22,0,.22-.2.27-.53.27h-2.64c-1.55,0-2.24-.13-2.97-.52ZM441.27,309.07c.84-.62,1.64-1.9,1.64-4.17,0-3.93-2.58-5.06-4.25-5.06-.68,0-1.17,0-1.47.11-.17.06-.24.16-.24.39v8.42c0,.31.07.42.24.5.59.2,1.43.27,2.12.27,1.11,0,1.48-.1,1.96-.47Z"/>
  <path class="cls-9" d="M469.66,298.53c-.52,0-2.35.08-2.96.08-.8,0-1.68-.08-2.6-.08-.34,0-.46.05-.46.24,0,.17.24.22.51.28.44.11.57.42.57.7,0,.36-.13.82-.38,1.45-.4.85-3.89,6.96-4.18,7.61-.44-.77-4.31-7.46-4.71-8.3-.19-.38-.33-.73-.33-.93,0-.22.14-.45.38-.5.42-.12.63-.14.63-.31,0-.16-.16-.24-.44-.24-1.25,0-2.36.08-2.96.08-.91,0-2.99-.08-3.5-.08-.33,0-.53.08-.53.24,0,.19.2.25.44.25.32,0,.78.17,1.15.36.52.3,1.22,1,1.91,2.02.97,1.45,4.69,7.55,4.89,7.99.35.8.63,1.42.63,2.92v2.26c0,.44,0,1.6-.07,2.77-.06.81-.32,1.43-.87,1.52-.24.07-.59.13-.96.13-.32,0-.45.09-.45.22,0,.22.22.27.61.27,1.02,0,2.77-.08,3.47-.08.74,0,2.49.08,4.24.08.36,0,.57-.08.57-.27,0-.13-.12-.22-.44-.22-.39,0-1.01-.06-1.39-.13-.82-.09-1.08-.71-1.13-1.52-.08-1.17-.08-2.33-.08-2.77v-2.26c0-.92,0-1.79.44-2.79.47-1.2,4.36-7.69,5.29-8.82.59-.75.89-1.09,1.47-1.36.42-.23.97-.33,1.25-.33s.5-.09.5-.28c0-.16-.18-.21-.49-.21Z"/>
  <path class="cls-21" d="M469.66,298.53c-.52,0-2.35.08-2.96.08-.8,0-1.68-.08-2.6-.08-.34,0-.46.05-.46.24,0,.17.24.22.51.28.44.11.57.42.57.7,0,.36-.13.82-.38,1.45-.4.85-3.89,6.96-4.18,7.61-.44-.77-4.31-7.46-4.71-8.3-.19-.38-.33-.73-.33-.93,0-.22.14-.45.38-.5.42-.12.63-.14.63-.31,0-.16-.16-.24-.44-.24-1.25,0-2.36.08-2.96.08-.91,0-2.99-.08-3.5-.08-.33,0-.53.08-.53.24,0,.19.2.25.44.25.32,0,.78.17,1.15.36.52.3,1.22,1,1.91,2.02.97,1.45,4.69,7.55,4.89,7.99.35.8.63,1.42.63,2.92v2.26c0,.44,0,1.6-.07,2.77-.06.81-.32,1.43-.87,1.52-.24.07-.59.13-.96.13-.32,0-.45.09-.45.22,0,.22.22.27.61.27,1.02,0,2.77-.08,3.47-.08.74,0,2.49.08,4.24.08.36,0,.57-.08.57-.27,0-.13-.12-.22-.44-.22-.39,0-1.01-.06-1.39-.13-.82-.09-1.08-.71-1.13-1.52-.08-1.17-.08-2.33-.08-2.77v-2.26c0-.92,0-1.79.44-2.79.47-1.2,4.36-7.69,5.29-8.82.59-.75.89-1.09,1.47-1.36.42-.23.97-.33,1.25-.33s.5-.09.5-.28c0-.16-.18-.21-.49-.21Z"/>
</svg>