<?xml version="1.0" encoding="UTF-8"?>
<svg id="tomferr" xmlns="http://www.w3.org/2000/svg" xmlns:xlink="http://www.w3.org/1999/xlink" viewBox="-4.0 7.0 728.0 706.0">
  <defs>
    <style>
      .cls-1 {
        fill: none;
      }

      .cls-2 {
        fill: url(#Névtelen_színátmenet_7);
      }

      .cls-3 {
        fill: url(#Névtelen_színátmenet_2);
      }

      .cls-4 {
        clip-path: url(#clippath-1);
      }

      .cls-5 {
        clip-path: url(#clippath-3);
      }

      .cls-6 {
        clip-path: url(#clippath-2);
      }

      .cls-7 {
        fill: url(#Névtelen_színátmenet_7-2);
      }

      .cls-8 {
        fill: #fff;
      }

      .cls-9 {
        fill: #24246b;
      }

      .cls-10 {
        clip-path: url(#clippath);
      }
    </style>
    <clipPath id="clippath">
      <path class="cls-1" d="M112.15,356.85s44.35-58.49,243.42,0c199.07,58.48,247.75,0,247.75,0-.55-130.37-110.27-235.9-245.59-235.9s-245.04,105.53-245.59,235.9"/>
    </clipPath>
    <linearGradient id="Névtelen_színátmenet_2" data-name="Névtelen színátmenet 2" x1="-4457.1" y1="-1076.81" x2="-4453.85" y2="-1076.81" gradientTransform="translate(-86447.15 -358917.18) rotate(-90) scale(80.61 -80.61)" gradientUnits="userSpaceOnUse">
      <stop offset="0" stop-color="#aaa8cf"/>
      <stop offset="1" stop-color="#24246b"/>
    </linearGradient>
    <clipPath id="clippath-1">
      <path class="cls-1" d="M503.32,140.79l-19.01-61.03,64.04-13C423.7-2.62,293.27-11.76,162.14,70.76,80.01,122.43,25.9,199.74,4.05,309.88l42.02,44.02,49.03-44.02c20.2-97.35,81.82-162.73,176.09-196.1,70.7-25.03,159.22-18.42,232.13,27.01"/>
    </clipPath>
    <linearGradient id="Névtelen_színátmenet_7" data-name="Névtelen színátmenet 7" x1="427.07" y1="28.61" x2="424.64" y2="720.37" gradientUnits="userSpaceOnUse">
      <stop offset="0" stop-color="#24246b"/>
      <stop offset=".5" stop-color="#fff"/>
      <stop offset="1" stop-color="#76b72a"/>
    </linearGradient>
    <clipPath id="clippath-2">
      <path class="cls-1" d="M88.65,350.27l-41.85,48.32L0,351.02c-.27,146.49,71.65,257.36,205.94,324.1,72.88,36.22,183.42,47.8,288.54,8.32l16.26-56.91-63.25-18.46c-97.38,27.13-181.42,16.23-259.47-46.3-58.53-46.89-99.56-125.6-99.38-211.5"/>
    </clipPath>
    <clipPath id="clippath-3">
      <path class="cls-1" d="M536.34,163.8c82.5,75.96,112.44,164.7,81.04,272.15-18.92,64.76-64.29,115.56-125.06,153.08l53.03,12.01-17.01,63.03c102.76-51.32,172.67-137.85,189.1-270.14,15.96-128.48-45.98-227.75-135.07-306.16l-59.04,13.01,13.01,63.03Z"/>
    </clipPath>
    <linearGradient id="Névtelen_színátmenet_7-2" data-name="Névtelen színátmenet 7" y1="23.94" x2="424.64" y2="715.7" xlink:href="#Névtelen_színátmenet_7"/>
  </defs>
  <path class="cls-9" d="M357.74,594.69c135.66,0,245.64-106.05,245.64-236.87s-109.98-236.87-245.64-236.87-245.64,106.05-245.64,236.87,109.98,236.87,245.64,236.87"/>
  <g class="cls-10">
    <rect class="cls-3" x="112.15" y="120.95" width="491.18" height="294.38"/>
  </g>
  <g class="cls-4">
    <rect class="cls-2" x="-92.07" y="-7.31" width="1036" height="724.51"/>
  </g>
  <g class="cls-6">
    <rect class="cls-2" x="-92.07" y="-7.31" width="1036" height="724.51"/>
  </g>
  <g class="cls-5">
    <rect class="cls-7" x="-92.07" y="-11.99" width="1036" height="724.51"/>
  </g>
  <rect class="cls-8" x="539.18" y="281.62" width="26.45" height="22.97"/>
  <path class="cls-8" d="M403.59,550.06h6.83v7.2h-6.83v-7.2ZM386.77,557.26v-31.22h-10.57v-6.36h28.31v6.36h-10.55v31.22h-7.2ZM350.02,535.57h5.32c3.45,0,5.61-.15,6.47-.45.85-.31,1.53-.84,2.02-1.59.48-.75.73-1.69.73-2.82,0-1.27-.32-2.28-.96-3.06-.64-.78-1.54-1.27-2.71-1.48-.58-.07-2.33-.12-5.25-.12h-5.61v9.53ZM342.83,557.26v-37.59h15.15c3.8,0,6.57.34,8.29,1.02,1.73.67,3.12,1.87,4.15,3.6,1.04,1.73,1.55,3.7,1.55,5.92,0,2.82-.79,5.16-2.35,6.99-1.57,1.83-3.92,3-7.05,3.47,1.56.96,2.84,2.01,3.85,3.16,1.01,1.15,2.37,3.18,4.09,6.1l4.36,7.33h-8.6l-5.2-8.18c-1.85-2.92-3.11-4.76-3.79-5.52-.68-.76-1.4-1.28-2.16-1.57-.76-.28-1.97-.42-3.63-.42h-1.45v15.69h-7.2ZM309.32,557.26v-6.84l18.71-24.38h-16.6v-6.36h26.08v5.9l-19.52,25.36h20.27v6.33h-28.95ZM191.15,232.89h73.09v31.32h-73.09v-31.32ZM207.85,274.66h34.8v75.87h-34.8v-75.87ZM457.33,438.96c4.31,0,9.37,0,15.16-.17,5.8-.17,9.37-.35,10.86-.35,6.4,0,10.41,1.21,12.05,3.45,1.64,2.24,2.53,7.41,2.53,15.87,0,1.55,0,5.17-.15,10.51-.15,5.34-.15,10-.15,13.83h29.74v-43.14c0-6.03-4.91-10-14.57-11.72.74-.52,2.68-.86,5.5-1.21,2.83-.52,5.35-1.38,7.29-2.93,6.7-5,10.12-12.93,10.12-23.79,0-9.31-2.53-16.9-7.74-22.93-5.21-6.03-11.75-9.14-19.78-9.14h-50.86v28.62h40.3c3.72,0,5.65,2.41,5.65,7.41,0,4.66-1.93,7.07-5.65,7.07h-40.3v28.62ZM368.23,438.96c4.31,0,9.37,0,15.17-.17,5.8-.17,9.37-.35,10.86-.35,6.39,0,10.41,1.21,12.04,3.45,1.64,2.24,2.53,7.41,2.53,15.87,0,1.55,0,5.17-.15,10.51-.14,5.34-.14,10-.14,13.83h29.75v-43.14c0-6.03-4.91-10-14.58-11.72.74-.52,2.68-.86,5.51-1.21,2.83-.52,5.35-1.38,7.29-2.93,6.7-5,10.11-12.93,10.11-23.79,0-9.31-2.53-16.9-7.73-22.93-5.2-6.03-11.75-9.14-19.78-9.14h-50.86v28.62h40.31c3.72,0,5.65,2.41,5.65,7.41,0,4.66-1.93,7.07-5.65,7.07h-40.31v28.62ZM288.66,395.85h69.76v-28.62h-69.76v28.62ZM358.41,410.33h-69.76v71.76h69.76v-28.65h-40.16v-14.49h40.16v-28.62ZM279.88,410.33h-71.84v71.76h29.75v-43.14h42.09v-28.62ZM208.04,395.85h71.84v-28.62h-71.84v28.62ZM478.27,277.85h-33.67v73.05h33.67v-73.05ZM492.48,233.97h-95.75v116.93h33.66v-87.79h47.88c7.1,0,11.17.7,12.35,1.93,1.19,1.23,1.86,5.44,1.86,12.81v73.05h34.17v-87.79c0-19.48-11.33-29.14-34.17-29.14M327.21,230.81c-16.07,0-29.77,6.14-41.11,18.25-11.33,12.11-17.08,26.5-17.08,43.18s5.75,31.24,17.08,43.53c11.33,12.11,25.04,18.28,41.11,18.28s29.61-6.17,40.94-18.28c11.33-12.29,16.92-26.86,16.92-43.53s-5.58-31.07-16.92-43.18c-11.33-12.11-24.87-18.25-40.94-18.25M327.21,266.26c6.59,0,12.35,2.63,16.92,7.72,4.74,5.09,7.11,11.23,7.11,18.26s-2.37,13.34-6.94,18.61c-4.57,5.09-10.32,7.72-17.09,7.72s-12.86-2.63-17.59-7.72c-4.57-5.09-6.94-11.41-6.94-18.61s2.37-13.17,7.1-18.26c4.74-5.09,10.49-7.72,17.43-7.72"/>
  <path class="cls-9" d="M359.24,131.11c-131.12,0-237.8,102.86-237.8,229.29s106.67,229.3,237.8,229.3,237.8-102.86,237.8-229.3-106.68-229.29-237.8-229.29M359.24,598.36c-135.9,0-246.46-106.75-246.46-237.96s110.56-237.95,246.46-237.95,246.46,106.75,246.46,237.95-110.56,237.96-246.46,237.96"/>
</svg>